%TF.GenerationSoftware,KiCad,Pcbnew,8.0.5*%
%TF.CreationDate,2024-09-12T13:34:15+03:00*%
%TF.ProjectId,Tactile Power Switch,54616374-696c-4652-9050-6f7765722053,rev?*%
%TF.SameCoordinates,Original*%
%TF.FileFunction,Copper,L1,Top*%
%TF.FilePolarity,Positive*%
%FSLAX46Y46*%
G04 Gerber Fmt 4.6, Leading zero omitted, Abs format (unit mm)*
G04 Created by KiCad (PCBNEW 8.0.5) date 2024-09-12 13:34:15*
%MOMM*%
%LPD*%
G01*
G04 APERTURE LIST*
G04 Aperture macros list*
%AMRoundRect*
0 Rectangle with rounded corners*
0 $1 Rounding radius*
0 $2 $3 $4 $5 $6 $7 $8 $9 X,Y pos of 4 corners*
0 Add a 4 corners polygon primitive as box body*
4,1,4,$2,$3,$4,$5,$6,$7,$8,$9,$2,$3,0*
0 Add four circle primitives for the rounded corners*
1,1,$1+$1,$2,$3*
1,1,$1+$1,$4,$5*
1,1,$1+$1,$6,$7*
1,1,$1+$1,$8,$9*
0 Add four rect primitives between the rounded corners*
20,1,$1+$1,$2,$3,$4,$5,0*
20,1,$1+$1,$4,$5,$6,$7,0*
20,1,$1+$1,$6,$7,$8,$9,0*
20,1,$1+$1,$8,$9,$2,$3,0*%
G04 Aperture macros list end*
%TA.AperFunction,SMDPad,CuDef*%
%ADD10RoundRect,0.250000X-0.250000X-0.475000X0.250000X-0.475000X0.250000X0.475000X-0.250000X0.475000X0*%
%TD*%
%TA.AperFunction,SMDPad,CuDef*%
%ADD11RoundRect,0.200000X-0.200000X-0.275000X0.200000X-0.275000X0.200000X0.275000X-0.200000X0.275000X0*%
%TD*%
%TA.AperFunction,SMDPad,CuDef*%
%ADD12RoundRect,0.250000X0.250000X0.475000X-0.250000X0.475000X-0.250000X-0.475000X0.250000X-0.475000X0*%
%TD*%
%TA.AperFunction,SMDPad,CuDef*%
%ADD13R,0.600000X1.300000*%
%TD*%
%TA.AperFunction,SMDPad,CuDef*%
%ADD14RoundRect,0.218750X0.256250X-0.218750X0.256250X0.218750X-0.256250X0.218750X-0.256250X-0.218750X0*%
%TD*%
%TA.AperFunction,SMDPad,CuDef*%
%ADD15RoundRect,0.200000X0.275000X-0.200000X0.275000X0.200000X-0.275000X0.200000X-0.275000X-0.200000X0*%
%TD*%
%TA.AperFunction,SMDPad,CuDef*%
%ADD16R,1.700000X1.000000*%
%TD*%
%TA.AperFunction,SMDPad,CuDef*%
%ADD17RoundRect,0.375000X-0.625000X-0.375000X0.625000X-0.375000X0.625000X0.375000X-0.625000X0.375000X0*%
%TD*%
%TA.AperFunction,SMDPad,CuDef*%
%ADD18RoundRect,0.500000X-0.500000X-1.400000X0.500000X-1.400000X0.500000X1.400000X-0.500000X1.400000X0*%
%TD*%
%TA.AperFunction,SMDPad,CuDef*%
%ADD19R,1.300000X0.600000*%
%TD*%
%TA.AperFunction,ComponentPad*%
%ADD20R,2.000000X2.000000*%
%TD*%
%TA.AperFunction,ComponentPad*%
%ADD21C,2.000000*%
%TD*%
%TA.AperFunction,ViaPad*%
%ADD22C,0.800000*%
%TD*%
%TA.AperFunction,Conductor*%
%ADD23C,0.200000*%
%TD*%
%TA.AperFunction,Conductor*%
%ADD24C,1.000000*%
%TD*%
G04 APERTURE END LIST*
D10*
%TO.P,C1,1*%
%TO.N,Net-(Q2-C)*%
X126850001Y-66000000D03*
%TO.P,C1,2*%
%TO.N,GND*%
X128749999Y-66000000D03*
%TD*%
D11*
%TO.P,R3,1*%
%TO.N,+12V*%
X123275000Y-68900000D03*
%TO.P,R3,2*%
%TO.N,Net-(Q2-C)*%
X124925000Y-68900000D03*
%TD*%
D12*
%TO.P,C2,1*%
%TO.N,Net-(Q2-C)*%
X125250000Y-67000000D03*
%TO.P,C2,2*%
%TO.N,GND*%
X123350000Y-67000000D03*
%TD*%
D13*
%TO.P,Q1,1,B*%
%TO.N,Net-(Q1-B)*%
X124450000Y-62949999D03*
%TO.P,Q1,2,E*%
%TO.N,GND*%
X122550000Y-62949999D03*
%TO.P,Q1,3,C*%
%TO.N,Net-(Q1-C)*%
X123500000Y-65050000D03*
%TD*%
D14*
%TO.P,D1,1,K*%
%TO.N,Net-(D1-K)*%
X128000000Y-59787501D03*
%TO.P,D1,2,A*%
%TO.N,VDD*%
X128000000Y-58212499D03*
%TD*%
D15*
%TO.P,R4,1*%
%TO.N,Net-(D1-K)*%
X128800001Y-56625000D03*
%TO.P,R4,2*%
%TO.N,GND*%
X128800001Y-54975000D03*
%TD*%
D16*
%TO.P,SW1,1,A*%
%TO.N,Net-(Q1-B)*%
X116850000Y-57100000D03*
X123150000Y-57100000D03*
%TO.P,SW1,2,B*%
%TO.N,Net-(Q2-C)*%
X116850000Y-60900000D03*
X123150000Y-60900000D03*
%TD*%
D17*
%TO.P,Q4,1*%
%TO.N,Net-(Q1-C)*%
X112950000Y-63600000D03*
%TO.P,Q4,2*%
%TO.N,VDD*%
X112950001Y-65900000D03*
%TO.P,Q4,3*%
%TO.N,+12V*%
X112950000Y-68200000D03*
D18*
%TO.P,Q4,4*%
%TO.N,VDD*%
X119249999Y-65900000D03*
%TD*%
D15*
%TO.P,R2,1*%
%TO.N,VDD*%
X126500000Y-56625000D03*
%TO.P,R2,2*%
%TO.N,Net-(Q1-B)*%
X126500000Y-54975000D03*
%TD*%
D19*
%TO.P,Q2,1,B*%
%TO.N,Net-(Q1-B)*%
X126749999Y-62050000D03*
%TO.P,Q2,2,E*%
%TO.N,GND*%
X126749999Y-63950000D03*
%TO.P,Q2,3,C*%
%TO.N,Net-(Q2-C)*%
X128850000Y-63000000D03*
%TD*%
D15*
%TO.P,R1,1*%
%TO.N,+12V*%
X121700000Y-68325000D03*
%TO.P,R1,2*%
%TO.N,Net-(Q1-C)*%
X121700000Y-66675000D03*
%TD*%
D20*
%TO.P,J2,1*%
%TO.N,VDD*%
X124000000Y-50150000D03*
D21*
%TO.P,J2,2*%
%TO.N,GND*%
X126540000Y-50150000D03*
%TD*%
D20*
%TO.P,J1,1*%
%TO.N,+12V*%
X117300000Y-50150000D03*
D21*
%TO.P,J1,2*%
%TO.N,GND*%
X119840000Y-50150000D03*
%TD*%
D22*
%TO.N,GND*%
X125669974Y-64469975D03*
X128800000Y-54000000D03*
X129700000Y-66000000D03*
X121600000Y-63000000D03*
X124600000Y-65500000D03*
%TO.N,Net-(Q1-C)*%
X112900000Y-62300000D03*
X121900000Y-65000000D03*
%TD*%
D23*
%TO.N,Net-(Q2-C)*%
X124925000Y-68900000D02*
X124925000Y-67325000D01*
X126850001Y-66000000D02*
X126850001Y-65749999D01*
X126149999Y-63000000D02*
X128850000Y-63000000D01*
X124925000Y-67325000D02*
X125250000Y-67000000D01*
X126250000Y-66000000D02*
X126850001Y-66000000D01*
X124849999Y-64300000D02*
X126149999Y-63000000D01*
X124250001Y-64300000D02*
X124849999Y-64300000D01*
X116850000Y-60900000D02*
X123150000Y-60900000D01*
X123150000Y-60900000D02*
X123500000Y-61250000D01*
X123500000Y-63549999D02*
X124250001Y-64300000D01*
X123500000Y-61250000D02*
X123500000Y-63549999D01*
X126850001Y-65749999D02*
X128850000Y-63750000D01*
X128850000Y-63750000D02*
X128850000Y-63000000D01*
X125250000Y-67000000D02*
X126250000Y-66000000D01*
%TO.N,GND*%
X126749999Y-63950000D02*
X126189949Y-63950000D01*
X122550000Y-62949999D02*
X121650001Y-62949999D01*
X128800001Y-54975000D02*
X128800001Y-54000001D01*
X126189949Y-63950000D02*
X125669974Y-64469975D01*
X121650001Y-62949999D02*
X121600000Y-63000000D01*
X128749999Y-66000000D02*
X129700000Y-66000000D01*
X123350000Y-67000000D02*
X124600000Y-65750000D01*
X124600000Y-65750000D02*
X124600000Y-65500000D01*
X128800001Y-54000001D02*
X128800000Y-54000000D01*
%TO.N,+12V*%
X122700000Y-68325000D02*
X123275000Y-68900000D01*
X121700000Y-68325000D02*
X122700000Y-68325000D01*
D24*
X111000000Y-56450000D02*
X117300000Y-50150000D01*
X111000000Y-67300000D02*
X111000000Y-56450000D01*
X111900000Y-68200000D02*
X111000000Y-67300000D01*
X112950000Y-68200000D02*
X111900000Y-68200000D01*
D23*
X113075000Y-68325000D02*
X112950000Y-68200000D01*
X121700000Y-68325000D02*
X113075000Y-68325000D01*
D24*
%TO.N,VDD*%
X116500000Y-53900000D02*
X120300000Y-53900000D01*
D23*
X126500000Y-56712499D02*
X128000000Y-58212499D01*
X127700000Y-53850000D02*
X124000000Y-50150000D01*
X127700000Y-55425000D02*
X127700000Y-53850000D01*
D24*
X114100000Y-61200000D02*
X114100000Y-56300000D01*
X120300000Y-53850000D02*
X124000000Y-50150000D01*
X114100000Y-56300000D02*
X116500000Y-53900000D01*
X116000000Y-65900000D02*
X119249999Y-65900000D01*
X120300000Y-53900000D02*
X120300000Y-53850000D01*
D23*
X126500000Y-56625000D02*
X127700000Y-55425000D01*
D24*
X116000000Y-65900000D02*
X116000000Y-63100000D01*
X112950001Y-65900000D02*
X116000000Y-65900000D01*
D23*
X126500000Y-56625000D02*
X126500000Y-56712499D01*
D24*
X116000000Y-63100000D02*
X114100000Y-61200000D01*
D23*
%TO.N,Net-(Q1-C)*%
X121900000Y-65000000D02*
X123450000Y-65000000D01*
X112950000Y-63600000D02*
X112950000Y-62350000D01*
X121700000Y-66675000D02*
X121700000Y-65200000D01*
X121700000Y-65200000D02*
X121900000Y-65000000D01*
X123450000Y-65000000D02*
X123500000Y-65050000D01*
X112950000Y-62350000D02*
X112900000Y-62300000D01*
%TO.N,Net-(Q1-B)*%
X116850000Y-57100000D02*
X123150000Y-57100000D01*
X125037500Y-57162500D02*
X124975000Y-57100000D01*
X124450000Y-62949999D02*
X125399999Y-62000000D01*
X126749999Y-58874999D02*
X125037500Y-57162500D01*
X125399999Y-62000000D02*
X126699999Y-62000000D01*
X124975000Y-56500000D02*
X126500000Y-54975000D01*
X126749999Y-62050000D02*
X126749999Y-58874999D01*
X123150000Y-57100000D02*
X124975000Y-57100000D01*
X126699999Y-62000000D02*
X126749999Y-62050000D01*
X124975000Y-57100000D02*
X124975000Y-56500000D01*
%TO.N,Net-(D1-K)*%
X129100000Y-59400000D02*
X129100000Y-56924999D01*
X128712499Y-59787501D02*
X129100000Y-59400000D01*
X129100000Y-56924999D02*
X128800001Y-56625000D01*
X128000000Y-59787501D02*
X128712499Y-59787501D01*
%TD*%
M02*
