%TF.GenerationSoftware,KiCad,Pcbnew,8.0.5*%
%TF.CreationDate,2024-09-12T13:24:22+03:00*%
%TF.ProjectId,Tactile Power Switch,54616374-696c-4652-9050-6f7765722053,rev?*%
%TF.SameCoordinates,Original*%
%TF.FileFunction,Legend,Top*%
%TF.FilePolarity,Positive*%
%FSLAX46Y46*%
G04 Gerber Fmt 4.6, Leading zero omitted, Abs format (unit mm)*
G04 Created by KiCad (PCBNEW 8.0.5) date 2024-09-12 13:24:22*
%MOMM*%
%LPD*%
G01*
G04 APERTURE LIST*
%ADD10C,0.200000*%
%ADD11C,0.150000*%
%ADD12C,0.000000*%
%ADD13C,0.127000*%
G04 APERTURE END LIST*
D10*
G36*
X122675855Y-45499853D02*
G01*
X122675855Y-46004947D01*
X122334892Y-46004947D01*
X122334892Y-45499853D01*
X121826378Y-45499853D01*
X121826378Y-45160844D01*
X122334892Y-45160844D01*
X122334892Y-44660635D01*
X122675855Y-44660635D01*
X122675855Y-45160844D01*
X123188277Y-45160844D01*
X123188277Y-45499853D01*
X122675855Y-45499853D01*
G37*
G36*
X109193928Y-51660000D02*
G01*
X109193928Y-49690425D01*
X109787438Y-49690425D01*
X109787438Y-51660000D01*
X109193928Y-51660000D01*
G37*
G36*
X111545498Y-51660000D02*
G01*
X110850383Y-50706964D01*
X110792727Y-50625425D01*
X110736226Y-50538110D01*
X110715561Y-50503265D01*
X110710188Y-50503265D01*
X110714916Y-50607893D01*
X110717511Y-50710323D01*
X110718460Y-50808464D01*
X110718492Y-50831039D01*
X110718492Y-51660000D01*
X110168946Y-51660000D01*
X110168946Y-49690425D01*
X110729727Y-49690425D01*
X111396022Y-50596078D01*
X111425819Y-50639064D01*
X111461479Y-50689867D01*
X111495184Y-50740669D01*
X111519609Y-50784633D01*
X111524982Y-50784633D01*
X111518048Y-50681706D01*
X111516678Y-50575561D01*
X111516678Y-49690425D01*
X112066224Y-49690425D01*
X112066224Y-51660000D01*
X111545498Y-51660000D01*
G37*
G36*
X115275855Y-45499853D02*
G01*
X115275855Y-46004947D01*
X114934892Y-46004947D01*
X114934892Y-45499853D01*
X114426378Y-45499853D01*
X114426378Y-45160844D01*
X114934892Y-45160844D01*
X114934892Y-44660635D01*
X115275855Y-44660635D01*
X115275855Y-45160844D01*
X115788277Y-45160844D01*
X115788277Y-45499853D01*
X115275855Y-45499853D01*
G37*
G36*
X124626797Y-45498527D02*
G01*
X124626797Y-45092107D01*
X125378576Y-45092107D01*
X125378576Y-45498527D01*
X124626797Y-45498527D01*
G37*
G36*
X117126797Y-45498527D02*
G01*
X117126797Y-45092107D01*
X117878576Y-45092107D01*
X117878576Y-45498527D01*
X117126797Y-45498527D01*
G37*
D11*
G36*
X109813970Y-67763623D02*
G01*
X109813970Y-68664000D01*
X109456106Y-68664000D01*
X109456106Y-67763623D01*
X109125498Y-67763623D01*
X109125498Y-67482255D01*
X110148681Y-67482255D01*
X110148681Y-67763623D01*
X109813970Y-67763623D01*
G37*
G36*
X110696325Y-67803378D02*
G01*
X110754881Y-67810097D01*
X110817515Y-67824073D01*
X110880066Y-67848530D01*
X110931285Y-67881767D01*
X110943838Y-67892876D01*
X110981639Y-67938888D01*
X111010155Y-67996652D01*
X111027208Y-68055519D01*
X111037440Y-68123020D01*
X111040756Y-68185868D01*
X111040851Y-68199157D01*
X111040851Y-68664000D01*
X110720209Y-68664000D01*
X110720209Y-68532695D01*
X110716985Y-68532695D01*
X110682319Y-68583692D01*
X110633983Y-68629854D01*
X110577148Y-68661655D01*
X110511814Y-68679094D01*
X110459944Y-68682757D01*
X110396783Y-68677100D01*
X110336230Y-68657546D01*
X110285809Y-68624023D01*
X110272658Y-68611243D01*
X110237109Y-68561824D01*
X110214727Y-68502960D01*
X110205840Y-68441906D01*
X110205247Y-68419854D01*
X110208871Y-68374718D01*
X110512700Y-68374718D01*
X110531763Y-68431528D01*
X110534389Y-68434509D01*
X110589396Y-68457460D01*
X110596817Y-68457663D01*
X110654811Y-68442474D01*
X110685917Y-68414579D01*
X110712674Y-68361707D01*
X110720209Y-68303790D01*
X110720209Y-68270085D01*
X110601507Y-68287377D01*
X110544008Y-68309286D01*
X110513481Y-68361749D01*
X110512700Y-68374718D01*
X110208871Y-68374718D01*
X110210024Y-68360361D01*
X110229428Y-68295282D01*
X110263759Y-68240520D01*
X110313016Y-68196077D01*
X110377200Y-68161952D01*
X110439294Y-68142082D01*
X110510942Y-68128815D01*
X110720209Y-68101264D01*
X110697490Y-68046095D01*
X110682986Y-68033853D01*
X110626749Y-68011184D01*
X110583335Y-68007475D01*
X110520644Y-68011963D01*
X110456438Y-68025427D01*
X110400199Y-68044111D01*
X110342847Y-68069390D01*
X110284382Y-68101264D01*
X110284382Y-67869722D01*
X110340463Y-67848647D01*
X110400416Y-67832080D01*
X110455547Y-67820482D01*
X110517108Y-67810281D01*
X110578081Y-67803424D01*
X110631988Y-67801138D01*
X110696325Y-67803378D01*
G37*
G36*
X111890523Y-68638794D02*
G01*
X111833164Y-68660363D01*
X111784131Y-68670448D01*
X111721586Y-68678418D01*
X111662846Y-68681988D01*
X111616775Y-68682757D01*
X111551728Y-68679405D01*
X111490233Y-68669348D01*
X111432293Y-68652587D01*
X111377906Y-68629122D01*
X111322617Y-68595402D01*
X111274794Y-68554912D01*
X111234436Y-68507653D01*
X111215240Y-68478473D01*
X111187329Y-68422025D01*
X111168553Y-68361821D01*
X111158911Y-68297862D01*
X111157501Y-68260706D01*
X111160432Y-68199481D01*
X111170961Y-68134387D01*
X111189146Y-68074496D01*
X111214989Y-68019807D01*
X111218757Y-68013337D01*
X111252793Y-67964793D01*
X111293349Y-67922332D01*
X111340427Y-67885952D01*
X111394026Y-67855653D01*
X111453285Y-67831803D01*
X111517051Y-67814767D01*
X111576543Y-67805451D01*
X111639484Y-67801351D01*
X111658101Y-67801138D01*
X111717480Y-67802622D01*
X111776411Y-67807578D01*
X111805819Y-67811690D01*
X111864933Y-67824250D01*
X111890523Y-67835430D01*
X111890523Y-68101264D01*
X111835175Y-68080234D01*
X111814612Y-68075179D01*
X111755673Y-68065356D01*
X111723168Y-68063748D01*
X111663553Y-68068356D01*
X111604862Y-68086052D01*
X111566657Y-68110936D01*
X111530393Y-68159518D01*
X111514902Y-68217691D01*
X111513607Y-68243413D01*
X111522217Y-68305519D01*
X111550748Y-68358445D01*
X111565778Y-68373839D01*
X111619200Y-68405495D01*
X111676958Y-68418519D01*
X111709979Y-68420147D01*
X111769799Y-68416484D01*
X111832031Y-68403991D01*
X111890523Y-68382632D01*
X111890523Y-68638794D01*
G37*
G36*
X112620321Y-68651983D02*
G01*
X112561144Y-68669114D01*
X112541772Y-68672792D01*
X112481908Y-68680266D01*
X112420271Y-68682718D01*
X112410760Y-68682757D01*
X112349690Y-68678915D01*
X112287348Y-68665112D01*
X112232957Y-68641271D01*
X112181270Y-68602450D01*
X112141174Y-68551734D01*
X112116550Y-68497622D01*
X112102294Y-68435010D01*
X112098325Y-68373253D01*
X112098325Y-68063748D01*
X111965847Y-68063748D01*
X111965847Y-67819896D01*
X112098325Y-67819896D01*
X112098325Y-67653420D01*
X112444759Y-67557286D01*
X112444759Y-67819896D01*
X112620321Y-67819896D01*
X112620321Y-68063748D01*
X112444759Y-68063748D01*
X112444759Y-68311411D01*
X112455183Y-68373318D01*
X112498604Y-68414944D01*
X112532979Y-68420147D01*
X112592019Y-68420147D01*
X112620321Y-68420147D01*
X112620321Y-68651983D01*
G37*
G36*
X113097473Y-67592750D02*
G01*
X113087151Y-67653931D01*
X113056184Y-67704116D01*
X113043545Y-67716435D01*
X112989793Y-67748692D01*
X112928127Y-67762471D01*
X112901395Y-67763623D01*
X112841357Y-67756740D01*
X112786176Y-67733748D01*
X112760711Y-67714676D01*
X112723245Y-67667104D01*
X112706760Y-67610556D01*
X112705903Y-67592750D01*
X112716057Y-67533052D01*
X112749472Y-67481168D01*
X112758953Y-67472290D01*
X112812472Y-67440634D01*
X112874424Y-67427112D01*
X112901395Y-67425981D01*
X112962738Y-67432493D01*
X113018310Y-67454246D01*
X113043545Y-67472290D01*
X113080410Y-67517995D01*
X113096631Y-67574583D01*
X113097473Y-67592750D01*
G37*
G36*
X112725833Y-68664000D02*
G01*
X112725833Y-67819896D01*
X113076957Y-67819896D01*
X113076957Y-68664000D01*
X112725833Y-68664000D01*
G37*
G36*
X113242847Y-68664000D02*
G01*
X113242847Y-67407224D01*
X113593970Y-67407224D01*
X113593970Y-68664000D01*
X113242847Y-68664000D01*
G37*
G36*
X114233331Y-67804344D02*
G01*
X114291748Y-67813961D01*
X114351817Y-67832444D01*
X114394403Y-67852429D01*
X114448247Y-67888522D01*
X114493275Y-67932686D01*
X114529488Y-67984922D01*
X114535673Y-67996337D01*
X114559050Y-68050915D01*
X114574777Y-68110454D01*
X114582852Y-68174954D01*
X114584033Y-68212932D01*
X114584033Y-68345116D01*
X114062330Y-68345116D01*
X114088825Y-68399705D01*
X114125052Y-68427768D01*
X114182935Y-68449226D01*
X114245393Y-68457196D01*
X114266908Y-68457663D01*
X114327486Y-68454146D01*
X114386416Y-68443595D01*
X114443697Y-68426009D01*
X114499330Y-68401390D01*
X114499330Y-68630294D01*
X114440814Y-68650736D01*
X114377081Y-68666158D01*
X114318300Y-68675380D01*
X114255686Y-68680913D01*
X114189239Y-68682757D01*
X114122576Y-68680017D01*
X114060708Y-68671795D01*
X114003634Y-68658092D01*
X113941473Y-68634414D01*
X113886216Y-68602842D01*
X113845443Y-68570503D01*
X113803708Y-68525320D01*
X113770608Y-68474182D01*
X113746143Y-68417087D01*
X113730313Y-68354037D01*
X113723117Y-68285031D01*
X113722637Y-68260706D01*
X113726008Y-68195017D01*
X113732154Y-68157538D01*
X114060572Y-68157538D01*
X114273356Y-68157538D01*
X114268349Y-68099066D01*
X114243826Y-68040448D01*
X114193246Y-68009819D01*
X114168722Y-68007475D01*
X114112944Y-68028824D01*
X114095157Y-68048801D01*
X114069644Y-68103401D01*
X114060572Y-68157538D01*
X113732154Y-68157538D01*
X113736120Y-68133357D01*
X113752972Y-68075728D01*
X113776566Y-68022129D01*
X113811005Y-67967479D01*
X113853650Y-67919924D01*
X113904503Y-67879463D01*
X113936301Y-67860050D01*
X113990706Y-67834276D01*
X114047822Y-67815866D01*
X114107650Y-67804820D01*
X114170188Y-67801138D01*
X114233331Y-67804344D01*
G37*
G36*
X115802073Y-67466145D02*
G01*
X115861939Y-67474090D01*
X115919291Y-67487330D01*
X115983024Y-67509471D01*
X116043335Y-67538822D01*
X116099018Y-67574733D01*
X116148866Y-67616816D01*
X116192880Y-67665070D01*
X116231060Y-67719494D01*
X116250258Y-67753364D01*
X116275059Y-67806890D01*
X116294730Y-67863054D01*
X116309269Y-67921855D01*
X116318676Y-67983295D01*
X116322952Y-68047372D01*
X116323237Y-68069317D01*
X116320538Y-68134613D01*
X116312439Y-68197293D01*
X116298941Y-68257355D01*
X116280043Y-68314799D01*
X116255746Y-68369627D01*
X116246448Y-68387321D01*
X116215608Y-68437663D01*
X116174184Y-68490847D01*
X116126898Y-68538057D01*
X116073750Y-68579292D01*
X116032198Y-68605088D01*
X115979476Y-68631484D01*
X115924404Y-68652418D01*
X115866983Y-68667891D01*
X115807213Y-68677903D01*
X115745094Y-68682454D01*
X115723866Y-68682757D01*
X115662488Y-68680120D01*
X115603213Y-68672206D01*
X115546039Y-68659017D01*
X115481994Y-68636962D01*
X115420809Y-68607726D01*
X115364072Y-68571868D01*
X115313114Y-68530204D01*
X115267934Y-68482734D01*
X115228532Y-68429458D01*
X115208611Y-68396407D01*
X115179147Y-68335084D01*
X115156919Y-68270367D01*
X115143627Y-68212195D01*
X115135652Y-68151528D01*
X115132993Y-68088368D01*
X115133541Y-68074886D01*
X115511374Y-68074886D01*
X115514193Y-68135315D01*
X115524319Y-68196924D01*
X115544512Y-68256731D01*
X115570286Y-68301445D01*
X115611255Y-68344259D01*
X115665909Y-68373038D01*
X115724310Y-68382552D01*
X115730607Y-68382632D01*
X115789298Y-68373546D01*
X115841688Y-68346288D01*
X115885652Y-68301812D01*
X115914984Y-68250032D01*
X115918478Y-68241655D01*
X115936126Y-68182150D01*
X115944431Y-68119667D01*
X115945736Y-68079868D01*
X115943057Y-68018600D01*
X115933435Y-67955860D01*
X115914247Y-67894561D01*
X115889755Y-67848326D01*
X115850732Y-67803658D01*
X115798483Y-67773632D01*
X115736468Y-67763623D01*
X115674553Y-67771580D01*
X115617025Y-67798713D01*
X115574343Y-67840089D01*
X115570579Y-67845102D01*
X115539358Y-67902427D01*
X115521145Y-67965276D01*
X115512820Y-68030095D01*
X115511374Y-68074886D01*
X115133541Y-68074886D01*
X115135683Y-68022151D01*
X115143751Y-67958469D01*
X115157197Y-67897322D01*
X115176023Y-67838709D01*
X115200227Y-67782631D01*
X115209490Y-67764502D01*
X115240450Y-67712834D01*
X115275738Y-67665762D01*
X115322377Y-67616653D01*
X115374906Y-67573799D01*
X115424619Y-67542046D01*
X115477935Y-67515351D01*
X115533910Y-67494180D01*
X115592543Y-67478532D01*
X115653835Y-67468406D01*
X115717785Y-67463804D01*
X115739692Y-67463497D01*
X115802073Y-67466145D01*
G37*
G36*
X117309783Y-68664000D02*
G01*
X116892714Y-68092178D01*
X116858120Y-68043255D01*
X116824220Y-67990866D01*
X116811821Y-67969959D01*
X116808597Y-67969959D01*
X116811434Y-68032736D01*
X116812991Y-68094193D01*
X116813560Y-68153078D01*
X116813579Y-68166623D01*
X116813579Y-68664000D01*
X116483852Y-68664000D01*
X116483852Y-67482255D01*
X116820321Y-67482255D01*
X117220097Y-68025646D01*
X117237976Y-68051438D01*
X117259371Y-68081920D01*
X117279595Y-68112401D01*
X117294249Y-68138780D01*
X117297473Y-68138780D01*
X117293313Y-68077023D01*
X117292491Y-68013337D01*
X117292491Y-67482255D01*
X117622219Y-67482255D01*
X117622219Y-68664000D01*
X117309783Y-68664000D01*
G37*
G36*
X118450788Y-68851578D02*
G01*
X118141577Y-68851578D01*
X118726001Y-67482255D01*
X119035212Y-67482255D01*
X118450788Y-68851578D01*
G37*
G36*
X120192582Y-67466145D02*
G01*
X120252448Y-67474090D01*
X120309801Y-67487330D01*
X120373534Y-67509471D01*
X120433845Y-67538822D01*
X120489527Y-67574733D01*
X120539376Y-67616816D01*
X120583390Y-67665070D01*
X120621570Y-67719494D01*
X120640767Y-67753364D01*
X120665569Y-67806890D01*
X120685239Y-67863054D01*
X120699778Y-67921855D01*
X120709186Y-67983295D01*
X120713462Y-68047372D01*
X120713747Y-68069317D01*
X120711047Y-68134613D01*
X120702948Y-68197293D01*
X120689450Y-68257355D01*
X120670553Y-68314799D01*
X120646256Y-68369627D01*
X120636957Y-68387321D01*
X120606117Y-68437663D01*
X120564694Y-68490847D01*
X120517408Y-68538057D01*
X120464259Y-68579292D01*
X120422707Y-68605088D01*
X120369985Y-68631484D01*
X120314914Y-68652418D01*
X120257493Y-68667891D01*
X120197723Y-68677903D01*
X120135603Y-68682454D01*
X120114375Y-68682757D01*
X120052997Y-68680120D01*
X119993722Y-68672206D01*
X119936549Y-68659017D01*
X119872503Y-68636962D01*
X119811318Y-68607726D01*
X119754582Y-68571868D01*
X119703623Y-68530204D01*
X119658443Y-68482734D01*
X119619041Y-68429458D01*
X119599120Y-68396407D01*
X119569656Y-68335084D01*
X119547429Y-68270367D01*
X119534136Y-68212195D01*
X119526161Y-68151528D01*
X119523503Y-68088368D01*
X119524050Y-68074886D01*
X119901884Y-68074886D01*
X119904703Y-68135315D01*
X119914828Y-68196924D01*
X119935021Y-68256731D01*
X119960795Y-68301445D01*
X120001765Y-68344259D01*
X120056419Y-68373038D01*
X120114819Y-68382552D01*
X120121116Y-68382632D01*
X120179808Y-68373546D01*
X120232198Y-68346288D01*
X120276161Y-68301812D01*
X120305493Y-68250032D01*
X120308988Y-68241655D01*
X120326636Y-68182150D01*
X120334941Y-68119667D01*
X120336245Y-68079868D01*
X120333566Y-68018600D01*
X120323945Y-67955860D01*
X120304756Y-67894561D01*
X120280265Y-67848326D01*
X120241241Y-67803658D01*
X120188993Y-67773632D01*
X120126978Y-67763623D01*
X120065062Y-67771580D01*
X120007534Y-67798713D01*
X119964853Y-67840089D01*
X119961088Y-67845102D01*
X119929867Y-67902427D01*
X119911655Y-67965276D01*
X119903329Y-68030095D01*
X119901884Y-68074886D01*
X119524050Y-68074886D01*
X119526192Y-68022151D01*
X119534260Y-67958469D01*
X119547707Y-67897322D01*
X119566532Y-67838709D01*
X119590736Y-67782631D01*
X119600000Y-67764502D01*
X119630960Y-67712834D01*
X119666247Y-67665762D01*
X119712886Y-67616653D01*
X119765415Y-67573799D01*
X119815129Y-67542046D01*
X119868445Y-67515351D01*
X119924420Y-67494180D01*
X119983053Y-67478532D01*
X120044344Y-67468406D01*
X120108294Y-67463804D01*
X120130202Y-67463497D01*
X120192582Y-67466145D01*
G37*
G36*
X121230467Y-67763623D02*
G01*
X121230467Y-67969959D01*
X121581591Y-67969959D01*
X121581591Y-68251327D01*
X121230467Y-68251327D01*
X121230467Y-68664000D01*
X120874361Y-68664000D01*
X120874361Y-67482255D01*
X121615296Y-67482255D01*
X121615296Y-67763623D01*
X121230467Y-67763623D01*
G37*
G36*
X122139050Y-67763623D02*
G01*
X122139050Y-67969959D01*
X122490174Y-67969959D01*
X122490174Y-68251327D01*
X122139050Y-68251327D01*
X122139050Y-68664000D01*
X121782944Y-68664000D01*
X121782944Y-67482255D01*
X122523879Y-67482255D01*
X122523879Y-67763623D01*
X122139050Y-67763623D01*
G37*
G36*
X109761466Y-69499748D02*
G01*
X109830999Y-69505813D01*
X109893992Y-69516543D01*
X109960951Y-69535578D01*
X110018492Y-69561331D01*
X110066615Y-69593803D01*
X110111725Y-69640554D01*
X110145755Y-69697459D01*
X110166106Y-69754316D01*
X110178316Y-69818634D01*
X110182273Y-69877930D01*
X110182386Y-69890411D01*
X110178539Y-69949652D01*
X110165015Y-70012182D01*
X110141754Y-70070353D01*
X110120837Y-70106713D01*
X110082230Y-70156437D01*
X110035324Y-70199438D01*
X109980118Y-70235716D01*
X109945861Y-70252965D01*
X109886675Y-70275662D01*
X109822836Y-70291873D01*
X109763160Y-70300739D01*
X109699922Y-70304640D01*
X109681200Y-70304842D01*
X109572463Y-70304842D01*
X109572463Y-70680000D01*
X109216357Y-70680000D01*
X109216357Y-70042233D01*
X109572463Y-70042233D01*
X109652477Y-70042233D01*
X109712205Y-70035543D01*
X109767442Y-70007281D01*
X109798429Y-69956903D01*
X109805764Y-69902428D01*
X109796490Y-69844292D01*
X109763558Y-69796622D01*
X109707860Y-69768722D01*
X109645221Y-69760900D01*
X109640167Y-69760865D01*
X109572463Y-69760865D01*
X109572463Y-70042233D01*
X109216357Y-70042233D01*
X109216357Y-69498255D01*
X109701130Y-69498255D01*
X109761466Y-69499748D01*
G37*
G36*
X110799474Y-69819775D02*
G01*
X110859362Y-69827685D01*
X110923100Y-69843182D01*
X110981819Y-69865567D01*
X110995715Y-69872240D01*
X111047610Y-69902336D01*
X111098329Y-69942633D01*
X111140934Y-69989745D01*
X111164829Y-70024940D01*
X111193306Y-70081671D01*
X111212464Y-70142066D01*
X111222302Y-70206123D01*
X111223740Y-70243293D01*
X111220591Y-70307479D01*
X111211146Y-70367227D01*
X111191500Y-70433070D01*
X111162786Y-70492524D01*
X111125005Y-70545590D01*
X111094780Y-70577418D01*
X111042803Y-70618654D01*
X110983593Y-70651359D01*
X110928725Y-70672096D01*
X110868835Y-70686908D01*
X110803921Y-70695795D01*
X110733984Y-70698757D01*
X110664653Y-70695867D01*
X110600273Y-70687194D01*
X110540844Y-70672740D01*
X110476067Y-70647763D01*
X110418419Y-70614460D01*
X110375826Y-70580348D01*
X110332299Y-70532672D01*
X110297777Y-70478669D01*
X110272261Y-70418339D01*
X110255751Y-70351682D01*
X110248871Y-70291302D01*
X110247754Y-70253258D01*
X110603852Y-70253258D01*
X110608550Y-70315412D01*
X110625909Y-70371672D01*
X110667022Y-70418287D01*
X110729279Y-70435969D01*
X110737501Y-70436147D01*
X110800407Y-70421055D01*
X110842726Y-70375776D01*
X110861407Y-70319691D01*
X110867507Y-70257084D01*
X110867634Y-70245345D01*
X110861323Y-70180820D01*
X110838654Y-70126484D01*
X110787134Y-70087672D01*
X110735743Y-70079748D01*
X110678040Y-70090593D01*
X110632832Y-70128717D01*
X110610163Y-70185650D01*
X110603852Y-70253258D01*
X110247754Y-70253258D01*
X110247745Y-70252965D01*
X110251501Y-70188339D01*
X110262766Y-70128108D01*
X110281543Y-70072274D01*
X110307829Y-70020837D01*
X110345802Y-69968941D01*
X110391796Y-69924371D01*
X110445813Y-69887127D01*
X110479288Y-69869602D01*
X110537082Y-69846649D01*
X110599089Y-69830254D01*
X110665309Y-69820417D01*
X110726708Y-69817190D01*
X110735743Y-69817138D01*
X110799474Y-69819775D01*
G37*
G36*
X112444173Y-70680000D02*
G01*
X112078981Y-70680000D01*
X111994863Y-70267620D01*
X111984245Y-70205790D01*
X111979466Y-70146890D01*
X111979330Y-70136022D01*
X111974347Y-70136022D01*
X111967533Y-70194906D01*
X111957879Y-70254901D01*
X111956175Y-70262637D01*
X111864731Y-70680000D01*
X111500125Y-70680000D01*
X111276789Y-69835896D01*
X111629672Y-69835896D01*
X111702065Y-70326531D01*
X111714668Y-70436147D01*
X111719651Y-70436147D01*
X111726657Y-70375079D01*
X111734305Y-70323307D01*
X111842456Y-69835896D01*
X112177166Y-69835896D01*
X112270369Y-70323600D01*
X112277697Y-70381926D01*
X112281800Y-70434682D01*
X112286782Y-70434682D01*
X112289127Y-70410942D01*
X112364159Y-69835896D01*
X112679818Y-69835896D01*
X112444173Y-70680000D01*
G37*
G36*
X113242682Y-69820344D02*
G01*
X113301099Y-69829961D01*
X113361168Y-69848444D01*
X113403754Y-69868429D01*
X113457598Y-69904522D01*
X113502626Y-69948686D01*
X113538839Y-70000922D01*
X113545024Y-70012337D01*
X113568401Y-70066915D01*
X113584128Y-70126454D01*
X113592203Y-70190954D01*
X113593384Y-70228932D01*
X113593384Y-70361116D01*
X113071681Y-70361116D01*
X113098176Y-70415705D01*
X113134403Y-70443768D01*
X113192286Y-70465226D01*
X113254744Y-70473196D01*
X113276259Y-70473663D01*
X113336837Y-70470146D01*
X113395767Y-70459595D01*
X113453048Y-70442009D01*
X113508681Y-70417390D01*
X113508681Y-70646294D01*
X113450165Y-70666736D01*
X113386432Y-70682158D01*
X113327651Y-70691380D01*
X113265037Y-70696913D01*
X113198590Y-70698757D01*
X113131927Y-70696017D01*
X113070059Y-70687795D01*
X113012985Y-70674092D01*
X112950824Y-70650414D01*
X112895567Y-70618842D01*
X112854794Y-70586503D01*
X112813059Y-70541320D01*
X112779959Y-70490182D01*
X112755494Y-70433087D01*
X112739664Y-70370037D01*
X112732468Y-70301031D01*
X112731988Y-70276706D01*
X112735359Y-70211017D01*
X112741505Y-70173538D01*
X113069923Y-70173538D01*
X113282707Y-70173538D01*
X113277700Y-70115066D01*
X113253177Y-70056448D01*
X113202597Y-70025819D01*
X113178073Y-70023475D01*
X113122295Y-70044824D01*
X113104508Y-70064801D01*
X113078995Y-70119401D01*
X113069923Y-70173538D01*
X112741505Y-70173538D01*
X112745471Y-70149357D01*
X112762323Y-70091728D01*
X112785917Y-70038129D01*
X112820356Y-69983479D01*
X112863001Y-69935924D01*
X112913854Y-69895463D01*
X112945652Y-69876050D01*
X113000057Y-69850276D01*
X113057173Y-69831866D01*
X113117001Y-69820820D01*
X113179539Y-69817138D01*
X113242682Y-69820344D01*
G37*
G36*
X114344284Y-70136022D02*
G01*
X114290648Y-70110230D01*
X114234668Y-70098506D01*
X114175502Y-70105760D01*
X114121947Y-70132560D01*
X114085054Y-70179106D01*
X114064822Y-70245400D01*
X114060572Y-70304842D01*
X114060572Y-70680000D01*
X113709448Y-70680000D01*
X113709448Y-69835896D01*
X114060572Y-69835896D01*
X114060572Y-69985959D01*
X114063796Y-69985959D01*
X114091768Y-69929534D01*
X114130629Y-69880966D01*
X114155240Y-69860223D01*
X114206823Y-69832327D01*
X114264887Y-69818653D01*
X114293872Y-69817138D01*
X114344284Y-69827103D01*
X114344284Y-70136022D01*
G37*
G36*
X115760795Y-70320963D02*
G01*
X115755810Y-70384685D01*
X115740857Y-70443632D01*
X115715934Y-70497802D01*
X115697780Y-70525833D01*
X115658301Y-70571439D01*
X115610753Y-70609996D01*
X115555137Y-70641506D01*
X115520753Y-70655966D01*
X115461017Y-70674687D01*
X115395530Y-70688060D01*
X115333510Y-70695372D01*
X115267086Y-70698590D01*
X115247299Y-70698757D01*
X115178829Y-70696511D01*
X115112564Y-70689772D01*
X115048504Y-70678541D01*
X114986649Y-70662817D01*
X114926999Y-70642601D01*
X114907606Y-70634863D01*
X114907606Y-70304842D01*
X114955468Y-70339458D01*
X115006364Y-70369666D01*
X115060294Y-70395466D01*
X115071444Y-70400097D01*
X115131850Y-70420622D01*
X115189347Y-70432627D01*
X115239092Y-70436147D01*
X115299299Y-70428811D01*
X115329658Y-70415338D01*
X115361394Y-70363598D01*
X115361898Y-70353789D01*
X115345778Y-70303084D01*
X115301127Y-70264702D01*
X115297124Y-70262344D01*
X115242905Y-70236553D01*
X115187181Y-70214517D01*
X115176371Y-70210467D01*
X115109532Y-70180952D01*
X115051605Y-70147214D01*
X115002590Y-70109254D01*
X114953854Y-70055867D01*
X114919042Y-69995882D01*
X114898155Y-69929299D01*
X114891193Y-69856120D01*
X114895768Y-69794244D01*
X114909493Y-69737211D01*
X114937070Y-69676794D01*
X114977101Y-69622969D01*
X115021325Y-69582079D01*
X115073357Y-69547217D01*
X115131633Y-69519568D01*
X115196153Y-69499132D01*
X115254690Y-69487611D01*
X115317563Y-69481100D01*
X115370983Y-69479497D01*
X115430334Y-69480743D01*
X115484703Y-69484480D01*
X115545771Y-69491372D01*
X115578785Y-69496496D01*
X115637446Y-69508583D01*
X115698073Y-69523754D01*
X115698073Y-69817138D01*
X115642305Y-69791639D01*
X115586886Y-69771416D01*
X115522675Y-69754490D01*
X115458939Y-69744745D01*
X115404689Y-69742107D01*
X115345080Y-69749155D01*
X115308848Y-69764382D01*
X115273678Y-69813656D01*
X115272798Y-69825345D01*
X115295238Y-69880322D01*
X115302107Y-69886601D01*
X115355296Y-69918513D01*
X115413218Y-69944836D01*
X115424619Y-69949616D01*
X115479421Y-69973132D01*
X115538250Y-70002258D01*
X115589515Y-70032373D01*
X115639767Y-70068757D01*
X115684591Y-70111988D01*
X115721428Y-70164067D01*
X115746209Y-70221386D01*
X115758935Y-70283944D01*
X115760795Y-70320963D01*
G37*
G36*
X116962470Y-70680000D02*
G01*
X116597278Y-70680000D01*
X116513161Y-70267620D01*
X116502542Y-70205790D01*
X116497763Y-70146890D01*
X116497627Y-70136022D01*
X116492644Y-70136022D01*
X116485830Y-70194906D01*
X116476176Y-70254901D01*
X116474473Y-70262637D01*
X116383028Y-70680000D01*
X116018422Y-70680000D01*
X115795087Y-69835896D01*
X116147969Y-69835896D01*
X116220362Y-70326531D01*
X116232965Y-70436147D01*
X116237948Y-70436147D01*
X116244955Y-70375079D01*
X116252602Y-70323307D01*
X116360753Y-69835896D01*
X116695464Y-69835896D01*
X116788667Y-70323600D01*
X116795994Y-70381926D01*
X116800097Y-70434682D01*
X116805080Y-70434682D01*
X116807424Y-70410942D01*
X116882456Y-69835896D01*
X117198115Y-69835896D01*
X116962470Y-70680000D01*
G37*
G36*
X117659148Y-69608750D02*
G01*
X117648826Y-69669931D01*
X117617859Y-69720116D01*
X117605219Y-69732435D01*
X117551468Y-69764692D01*
X117489802Y-69778471D01*
X117463070Y-69779623D01*
X117403032Y-69772740D01*
X117347851Y-69749748D01*
X117322386Y-69730676D01*
X117284920Y-69683104D01*
X117268434Y-69626556D01*
X117267578Y-69608750D01*
X117277732Y-69549052D01*
X117311147Y-69497168D01*
X117320628Y-69488290D01*
X117374147Y-69456634D01*
X117436099Y-69443112D01*
X117463070Y-69441981D01*
X117524413Y-69448493D01*
X117579985Y-69470246D01*
X117605219Y-69488290D01*
X117642085Y-69533995D01*
X117658306Y-69590583D01*
X117659148Y-69608750D01*
G37*
G36*
X117287508Y-70680000D02*
G01*
X117287508Y-69835896D01*
X117638632Y-69835896D01*
X117638632Y-70680000D01*
X117287508Y-70680000D01*
G37*
G36*
X118398911Y-70667983D02*
G01*
X118339734Y-70685114D01*
X118320362Y-70688792D01*
X118260498Y-70696266D01*
X118198861Y-70698718D01*
X118189351Y-70698757D01*
X118128280Y-70694915D01*
X118065939Y-70681112D01*
X118011547Y-70657271D01*
X117959860Y-70618450D01*
X117919765Y-70567734D01*
X117895140Y-70513622D01*
X117880884Y-70451010D01*
X117876915Y-70389253D01*
X117876915Y-70079748D01*
X117744438Y-70079748D01*
X117744438Y-69835896D01*
X117876915Y-69835896D01*
X117876915Y-69669420D01*
X118223349Y-69573286D01*
X118223349Y-69835896D01*
X118398911Y-69835896D01*
X118398911Y-70079748D01*
X118223349Y-70079748D01*
X118223349Y-70327411D01*
X118233774Y-70389318D01*
X118277195Y-70430944D01*
X118311570Y-70436147D01*
X118370609Y-70436147D01*
X118398911Y-70436147D01*
X118398911Y-70667983D01*
G37*
G36*
X119200223Y-70654794D02*
G01*
X119142864Y-70676363D01*
X119093831Y-70686448D01*
X119031286Y-70694418D01*
X118972546Y-70697988D01*
X118926475Y-70698757D01*
X118861427Y-70695405D01*
X118799933Y-70685348D01*
X118741993Y-70668587D01*
X118687606Y-70645122D01*
X118632317Y-70611402D01*
X118584494Y-70570912D01*
X118544136Y-70523653D01*
X118524940Y-70494473D01*
X118497029Y-70438025D01*
X118478253Y-70377821D01*
X118468611Y-70313862D01*
X118467201Y-70276706D01*
X118470132Y-70215481D01*
X118480661Y-70150387D01*
X118498846Y-70090496D01*
X118524689Y-70035807D01*
X118528457Y-70029337D01*
X118562493Y-69980793D01*
X118603049Y-69938332D01*
X118650127Y-69901952D01*
X118703726Y-69871653D01*
X118762985Y-69847803D01*
X118826751Y-69830767D01*
X118886243Y-69821451D01*
X118949184Y-69817351D01*
X118967801Y-69817138D01*
X119027180Y-69818622D01*
X119086111Y-69823578D01*
X119115519Y-69827690D01*
X119174633Y-69840250D01*
X119200223Y-69851430D01*
X119200223Y-70117264D01*
X119144875Y-70096234D01*
X119124312Y-70091179D01*
X119065373Y-70081356D01*
X119032868Y-70079748D01*
X118973253Y-70084356D01*
X118914562Y-70102052D01*
X118876357Y-70126936D01*
X118840092Y-70175518D01*
X118824602Y-70233691D01*
X118823307Y-70259413D01*
X118831917Y-70321519D01*
X118860448Y-70374445D01*
X118875478Y-70389839D01*
X118928900Y-70421495D01*
X118986658Y-70434519D01*
X119019678Y-70436147D01*
X119079499Y-70432484D01*
X119141731Y-70419991D01*
X119200223Y-70398632D01*
X119200223Y-70654794D01*
G37*
G36*
X119879609Y-70680000D02*
G01*
X119879609Y-70204312D01*
X119871981Y-70144098D01*
X119838081Y-70094467D01*
X119783182Y-70079748D01*
X119727126Y-70098069D01*
X119711374Y-70115212D01*
X119689664Y-70170342D01*
X119686755Y-70206071D01*
X119686755Y-70680000D01*
X119335631Y-70680000D01*
X119335631Y-69423224D01*
X119686755Y-69423224D01*
X119686755Y-69948443D01*
X119689979Y-69948443D01*
X119730082Y-69901843D01*
X119776571Y-69864917D01*
X119800181Y-69851137D01*
X119858653Y-69827896D01*
X119920715Y-69817670D01*
X119939106Y-69817138D01*
X120003458Y-69822616D01*
X120066088Y-69841871D01*
X120118379Y-69874991D01*
X120147494Y-69904773D01*
X120182206Y-69960605D01*
X120203524Y-70021211D01*
X120214814Y-70082716D01*
X120219021Y-70141730D01*
X120219302Y-70162693D01*
X120219302Y-70680000D01*
X119879609Y-70680000D01*
G37*
G36*
X109813970Y-71795623D02*
G01*
X109813970Y-72696000D01*
X109456106Y-72696000D01*
X109456106Y-71795623D01*
X109125498Y-71795623D01*
X109125498Y-71514255D01*
X110148681Y-71514255D01*
X110148681Y-71795623D01*
X109813970Y-71795623D01*
G37*
G36*
X111049351Y-72696000D02*
G01*
X111049351Y-72245811D01*
X110640488Y-72245811D01*
X110640488Y-72696000D01*
X110284382Y-72696000D01*
X110284382Y-71514255D01*
X110640488Y-71514255D01*
X110640488Y-71945685D01*
X111049351Y-71945685D01*
X111049351Y-71514255D01*
X111405457Y-71514255D01*
X111405457Y-72696000D01*
X111049351Y-72696000D01*
G37*
G36*
X112229043Y-71795623D02*
G01*
X112229043Y-72696000D01*
X111871179Y-72696000D01*
X111871179Y-71795623D01*
X111540572Y-71795623D01*
X111540572Y-71514255D01*
X112563754Y-71514255D01*
X112563754Y-71795623D01*
X112229043Y-71795623D01*
G37*
G36*
X113748722Y-72696000D02*
G01*
X113331653Y-72696000D01*
X113049699Y-71851896D01*
X113415771Y-71851896D01*
X113518646Y-72319670D01*
X113530874Y-72378856D01*
X113540971Y-72439105D01*
X113545903Y-72489663D01*
X113550886Y-72489663D01*
X113555282Y-72455371D01*
X113568506Y-72388882D01*
X113580174Y-72331207D01*
X113595488Y-72255773D01*
X113609366Y-72187542D01*
X113625294Y-72109322D01*
X113637052Y-72051625D01*
X113649722Y-71989489D01*
X113663302Y-71922912D01*
X113677794Y-71851896D01*
X114042107Y-71851896D01*
X113748722Y-72696000D01*
G37*
G36*
X114594419Y-71836344D02*
G01*
X114652836Y-71845961D01*
X114712906Y-71864444D01*
X114755491Y-71884429D01*
X114809336Y-71920522D01*
X114854364Y-71964686D01*
X114890577Y-72016922D01*
X114896762Y-72028337D01*
X114920139Y-72082915D01*
X114935865Y-72142454D01*
X114943941Y-72206954D01*
X114945122Y-72244932D01*
X114945122Y-72377116D01*
X114423419Y-72377116D01*
X114449914Y-72431705D01*
X114486140Y-72459768D01*
X114544023Y-72481226D01*
X114606482Y-72489196D01*
X114627997Y-72489663D01*
X114688575Y-72486146D01*
X114747505Y-72475595D01*
X114804786Y-72458009D01*
X114860418Y-72433390D01*
X114860418Y-72662294D01*
X114801902Y-72682736D01*
X114738169Y-72698158D01*
X114679388Y-72707380D01*
X114616775Y-72712913D01*
X114550327Y-72714757D01*
X114483665Y-72712017D01*
X114421797Y-72703795D01*
X114364722Y-72690092D01*
X114302562Y-72666414D01*
X114247305Y-72634842D01*
X114206531Y-72602503D01*
X114164797Y-72557320D01*
X114131697Y-72506182D01*
X114107232Y-72449087D01*
X114091401Y-72386037D01*
X114084206Y-72317031D01*
X114083726Y-72292706D01*
X114087096Y-72227017D01*
X114093242Y-72189538D01*
X114421660Y-72189538D01*
X114634445Y-72189538D01*
X114629438Y-72131066D01*
X114604914Y-72072448D01*
X114554335Y-72041819D01*
X114529811Y-72039475D01*
X114474032Y-72060824D01*
X114456245Y-72080801D01*
X114430732Y-72135401D01*
X114421660Y-72189538D01*
X114093242Y-72189538D01*
X114097208Y-72165357D01*
X114114061Y-72107728D01*
X114137655Y-72054129D01*
X114172093Y-71999479D01*
X114214739Y-71951924D01*
X114265592Y-71911463D01*
X114297390Y-71892050D01*
X114351795Y-71866276D01*
X114408911Y-71847866D01*
X114468738Y-71836820D01*
X114531277Y-71833138D01*
X114594419Y-71836344D01*
G37*
G36*
X115696022Y-72152022D02*
G01*
X115642386Y-72126230D01*
X115586406Y-72114506D01*
X115527240Y-72121760D01*
X115473685Y-72148560D01*
X115436792Y-72195106D01*
X115416560Y-72261400D01*
X115412309Y-72320842D01*
X115412309Y-72696000D01*
X115061186Y-72696000D01*
X115061186Y-71851896D01*
X115412309Y-71851896D01*
X115412309Y-72001959D01*
X115415533Y-72001959D01*
X115443505Y-71945534D01*
X115482366Y-71896966D01*
X115506978Y-71876223D01*
X115558561Y-71848327D01*
X115616625Y-71834653D01*
X115645610Y-71833138D01*
X115696022Y-71843103D01*
X115696022Y-72152022D01*
G37*
G36*
X116478576Y-72410822D02*
G01*
X116473345Y-72471052D01*
X116454555Y-72532263D01*
X116422099Y-72585340D01*
X116375979Y-72630283D01*
X116369253Y-72635330D01*
X116317415Y-72666278D01*
X116257302Y-72689626D01*
X116199191Y-72703588D01*
X116135001Y-72711965D01*
X116064731Y-72714757D01*
X116005500Y-72712053D01*
X115944582Y-72705333D01*
X115924047Y-72702448D01*
X115865726Y-72692693D01*
X115808625Y-72679438D01*
X115787759Y-72673138D01*
X115787759Y-72414632D01*
X115844339Y-72446505D01*
X115897353Y-72471785D01*
X115954696Y-72492942D01*
X116014290Y-72506131D01*
X116048318Y-72508421D01*
X116106888Y-72502014D01*
X116150791Y-72460765D01*
X116151193Y-72454199D01*
X116127159Y-72417270D01*
X116071586Y-72393048D01*
X116014382Y-72372791D01*
X116002009Y-72368616D01*
X115943830Y-72346648D01*
X115890444Y-72317889D01*
X115842022Y-72277332D01*
X115838757Y-72273655D01*
X115805738Y-72219650D01*
X115790200Y-72159323D01*
X115787759Y-72119489D01*
X115794262Y-72056840D01*
X115813771Y-72001080D01*
X115846286Y-71952207D01*
X115891807Y-71910221D01*
X115949253Y-71876498D01*
X116008173Y-71854893D01*
X116075172Y-71840666D01*
X116139030Y-71834343D01*
X116184898Y-71833138D01*
X116248095Y-71835619D01*
X116313379Y-71843061D01*
X116373160Y-71853841D01*
X116419078Y-71864499D01*
X116419078Y-72095748D01*
X116364710Y-72073693D01*
X116305359Y-72055595D01*
X116245276Y-72043017D01*
X116201605Y-72039475D01*
X116146210Y-72051198D01*
X116125694Y-72083732D01*
X116147969Y-72122713D01*
X116203004Y-72147228D01*
X116237069Y-72158470D01*
X116297116Y-72179023D01*
X116353721Y-72205386D01*
X116403020Y-72238702D01*
X116422302Y-72256949D01*
X116456594Y-72306614D01*
X116475059Y-72365924D01*
X116478576Y-72410822D01*
G37*
G36*
X116975659Y-71624750D02*
G01*
X116965337Y-71685931D01*
X116934370Y-71736116D01*
X116921730Y-71748435D01*
X116867979Y-71780692D01*
X116806313Y-71794471D01*
X116779581Y-71795623D01*
X116719543Y-71788740D01*
X116664362Y-71765748D01*
X116638897Y-71746676D01*
X116601430Y-71699104D01*
X116584945Y-71642556D01*
X116584089Y-71624750D01*
X116594243Y-71565052D01*
X116627658Y-71513168D01*
X116637138Y-71504290D01*
X116690657Y-71472634D01*
X116752610Y-71459112D01*
X116779581Y-71457981D01*
X116840924Y-71464493D01*
X116896495Y-71486246D01*
X116921730Y-71504290D01*
X116958596Y-71549995D01*
X116974816Y-71606583D01*
X116975659Y-71624750D01*
G37*
G36*
X116604019Y-72696000D02*
G01*
X116604019Y-71851896D01*
X116955143Y-71851896D01*
X116955143Y-72696000D01*
X116604019Y-72696000D01*
G37*
G36*
X117635538Y-71835775D02*
G01*
X117695426Y-71843685D01*
X117759164Y-71859182D01*
X117817883Y-71881567D01*
X117831779Y-71888240D01*
X117883674Y-71918336D01*
X117934393Y-71958633D01*
X117976998Y-72005745D01*
X118000893Y-72040940D01*
X118029370Y-72097671D01*
X118048528Y-72158066D01*
X118058366Y-72222123D01*
X118059804Y-72259293D01*
X118056656Y-72323479D01*
X118047210Y-72383227D01*
X118027564Y-72449070D01*
X117998850Y-72508524D01*
X117961069Y-72561590D01*
X117930844Y-72593418D01*
X117878867Y-72634654D01*
X117819657Y-72667359D01*
X117764790Y-72688096D01*
X117704899Y-72702908D01*
X117639985Y-72711795D01*
X117570048Y-72714757D01*
X117500717Y-72711867D01*
X117436337Y-72703194D01*
X117376909Y-72688740D01*
X117312131Y-72663763D01*
X117254483Y-72630460D01*
X117211891Y-72596348D01*
X117168363Y-72548672D01*
X117133841Y-72494669D01*
X117108325Y-72434339D01*
X117091815Y-72367682D01*
X117084935Y-72307302D01*
X117083819Y-72269258D01*
X117439916Y-72269258D01*
X117444614Y-72331412D01*
X117461973Y-72387672D01*
X117503086Y-72434287D01*
X117565343Y-72451969D01*
X117573565Y-72452147D01*
X117636471Y-72437055D01*
X117678790Y-72391776D01*
X117697471Y-72335691D01*
X117703571Y-72273084D01*
X117703698Y-72261345D01*
X117697387Y-72196820D01*
X117674718Y-72142484D01*
X117623198Y-72103672D01*
X117571807Y-72095748D01*
X117514105Y-72106593D01*
X117468896Y-72144717D01*
X117446227Y-72201650D01*
X117439916Y-72269258D01*
X117083819Y-72269258D01*
X117083810Y-72268965D01*
X117087565Y-72204339D01*
X117098831Y-72144108D01*
X117117607Y-72088274D01*
X117143893Y-72036837D01*
X117181866Y-71984941D01*
X117227861Y-71940371D01*
X117281877Y-71903127D01*
X117315352Y-71885602D01*
X117373146Y-71862649D01*
X117435153Y-71846254D01*
X117501373Y-71836417D01*
X117562772Y-71833190D01*
X117571807Y-71833138D01*
X117635538Y-71835775D01*
G37*
G36*
X118732742Y-72696000D02*
G01*
X118732742Y-72240829D01*
X118728254Y-72181483D01*
X118709295Y-72129747D01*
X118657637Y-72097873D01*
X118633091Y-72095748D01*
X118576158Y-72115532D01*
X118562163Y-72130919D01*
X118539677Y-72185153D01*
X118536664Y-72220312D01*
X118536664Y-72696000D01*
X118185540Y-72696000D01*
X118185540Y-71851896D01*
X118536664Y-71851896D01*
X118536664Y-71983201D01*
X118539888Y-71983201D01*
X118575581Y-71934099D01*
X118619352Y-71894065D01*
X118653021Y-71872413D01*
X118707948Y-71848480D01*
X118766338Y-71835593D01*
X118807187Y-71833138D01*
X118872102Y-71838588D01*
X118941075Y-71860727D01*
X118996523Y-71899897D01*
X119038448Y-71956097D01*
X119062250Y-72013318D01*
X119077397Y-72081439D01*
X119083888Y-72160459D01*
X119084159Y-72181917D01*
X119084159Y-72696000D01*
X118732742Y-72696000D01*
G37*
G36*
X120338590Y-72152022D02*
G01*
X120284954Y-72126230D01*
X120228974Y-72114506D01*
X120169808Y-72121760D01*
X120116253Y-72148560D01*
X120079360Y-72195106D01*
X120059128Y-72261400D01*
X120054877Y-72320842D01*
X120054877Y-72696000D01*
X119703754Y-72696000D01*
X119703754Y-71851896D01*
X120054877Y-71851896D01*
X120054877Y-72001959D01*
X120058101Y-72001959D01*
X120086073Y-71945534D01*
X120124934Y-71896966D01*
X120149546Y-71876223D01*
X120201129Y-71848327D01*
X120259193Y-71834653D01*
X120288178Y-71833138D01*
X120338590Y-71843103D01*
X120338590Y-72152022D01*
G37*
G36*
X120908781Y-71836344D02*
G01*
X120967198Y-71845961D01*
X121027267Y-71864444D01*
X121069853Y-71884429D01*
X121123697Y-71920522D01*
X121168726Y-71964686D01*
X121204938Y-72016922D01*
X121211123Y-72028337D01*
X121234500Y-72082915D01*
X121250227Y-72142454D01*
X121258302Y-72206954D01*
X121259483Y-72244932D01*
X121259483Y-72377116D01*
X120737780Y-72377116D01*
X120764275Y-72431705D01*
X120800502Y-72459768D01*
X120858385Y-72481226D01*
X120920843Y-72489196D01*
X120942358Y-72489663D01*
X121002937Y-72486146D01*
X121061866Y-72475595D01*
X121119147Y-72458009D01*
X121174780Y-72433390D01*
X121174780Y-72662294D01*
X121116264Y-72682736D01*
X121052531Y-72698158D01*
X120993750Y-72707380D01*
X120931136Y-72712913D01*
X120864689Y-72714757D01*
X120798026Y-72712017D01*
X120736158Y-72703795D01*
X120679084Y-72690092D01*
X120616923Y-72666414D01*
X120561666Y-72634842D01*
X120520893Y-72602503D01*
X120479158Y-72557320D01*
X120446058Y-72506182D01*
X120421593Y-72449087D01*
X120405763Y-72386037D01*
X120398567Y-72317031D01*
X120398087Y-72292706D01*
X120401458Y-72227017D01*
X120407604Y-72189538D01*
X120736022Y-72189538D01*
X120948806Y-72189538D01*
X120943799Y-72131066D01*
X120919276Y-72072448D01*
X120868696Y-72041819D01*
X120844173Y-72039475D01*
X120788394Y-72060824D01*
X120770607Y-72080801D01*
X120745094Y-72135401D01*
X120736022Y-72189538D01*
X120407604Y-72189538D01*
X120411570Y-72165357D01*
X120428422Y-72107728D01*
X120452016Y-72054129D01*
X120486455Y-71999479D01*
X120529100Y-71951924D01*
X120579953Y-71911463D01*
X120611751Y-71892050D01*
X120666156Y-71866276D01*
X120723272Y-71847866D01*
X120783100Y-71836820D01*
X120845638Y-71833138D01*
X120908781Y-71836344D01*
G37*
G36*
X121990453Y-72696000D02*
G01*
X121573384Y-72696000D01*
X121291430Y-71851896D01*
X121657501Y-71851896D01*
X121760376Y-72319670D01*
X121772605Y-72378856D01*
X121782702Y-72439105D01*
X121787634Y-72489663D01*
X121792616Y-72489663D01*
X121797013Y-72455371D01*
X121810236Y-72388882D01*
X121821905Y-72331207D01*
X121837219Y-72255773D01*
X121851097Y-72187542D01*
X121867025Y-72109322D01*
X121878783Y-72051625D01*
X121891452Y-71989489D01*
X121905033Y-71922912D01*
X121919525Y-71851896D01*
X122283838Y-71851896D01*
X121990453Y-72696000D01*
G37*
G36*
X122744284Y-72543299D02*
G01*
X122734186Y-72604880D01*
X122703893Y-72655241D01*
X122691528Y-72667570D01*
X122637624Y-72699827D01*
X122579097Y-72713098D01*
X122545568Y-72714757D01*
X122486190Y-72707833D01*
X122431723Y-72684704D01*
X122406643Y-72665518D01*
X122369778Y-72617745D01*
X122353557Y-72561109D01*
X122352714Y-72543299D01*
X122362868Y-72483801D01*
X122396283Y-72432007D01*
X122405764Y-72423131D01*
X122459395Y-72391676D01*
X122521653Y-72378239D01*
X122548792Y-72377116D01*
X122609778Y-72383587D01*
X122665149Y-72405202D01*
X122690355Y-72423131D01*
X122727221Y-72468780D01*
X122743442Y-72525200D01*
X122744284Y-72543299D01*
G37*
G36*
X123884795Y-71500765D02*
G01*
X123954643Y-71516569D01*
X124016871Y-71542908D01*
X124071480Y-71579784D01*
X124118469Y-71627195D01*
X124157838Y-71685142D01*
X124189587Y-71753625D01*
X124213716Y-71832644D01*
X124225569Y-71891176D01*
X124234036Y-71954391D01*
X124239116Y-72022289D01*
X124240809Y-72094869D01*
X124239000Y-72168440D01*
X124233573Y-72237476D01*
X124224529Y-72301979D01*
X124211866Y-72361949D01*
X124190951Y-72430535D01*
X124164382Y-72492036D01*
X124132161Y-72546454D01*
X124125038Y-72556488D01*
X124086248Y-72602083D01*
X124032804Y-72646596D01*
X123971839Y-72679981D01*
X123915289Y-72699301D01*
X123853515Y-72710893D01*
X123786517Y-72714757D01*
X123718248Y-72711208D01*
X123655588Y-72700561D01*
X123598538Y-72682815D01*
X123537483Y-72652150D01*
X123484507Y-72611264D01*
X123446531Y-72569384D01*
X123414108Y-72519971D01*
X123387180Y-72462772D01*
X123365748Y-72397788D01*
X123352559Y-72340196D01*
X123342887Y-72277621D01*
X123336732Y-72210063D01*
X123334094Y-72137523D01*
X123333984Y-72118609D01*
X123334164Y-72111575D01*
X123681884Y-72111575D01*
X123682770Y-72173478D01*
X123686044Y-72237702D01*
X123692739Y-72300556D01*
X123705539Y-72363308D01*
X123707090Y-72368616D01*
X123732358Y-72422699D01*
X123783157Y-72452066D01*
X123786517Y-72452147D01*
X123838797Y-72423933D01*
X123867630Y-72362974D01*
X123881888Y-72298533D01*
X123889493Y-72234440D01*
X123893717Y-72159200D01*
X123894668Y-72095455D01*
X123893792Y-72033892D01*
X123890556Y-71970091D01*
X123883939Y-71907754D01*
X123871288Y-71845701D01*
X123869755Y-71840466D01*
X123844721Y-71787142D01*
X123793448Y-71758187D01*
X123790034Y-71758107D01*
X123737754Y-71786067D01*
X123708921Y-71846474D01*
X123694663Y-71910333D01*
X123687059Y-71973847D01*
X123682834Y-72048407D01*
X123681884Y-72111575D01*
X123334164Y-72111575D01*
X123335885Y-72044485D01*
X123341586Y-71974958D01*
X123351089Y-71910029D01*
X123364392Y-71849698D01*
X123386367Y-71780750D01*
X123414281Y-71718986D01*
X123448134Y-71664406D01*
X123455617Y-71654353D01*
X123496275Y-71608589D01*
X123542228Y-71570581D01*
X123593476Y-71540330D01*
X123650019Y-71517836D01*
X123711857Y-71503099D01*
X123778991Y-71496118D01*
X123807327Y-71495497D01*
X123884795Y-71500765D01*
G37*
G36*
X124613621Y-72696000D02*
G01*
X124613621Y-71851896D01*
X124558589Y-71879258D01*
X124501754Y-71899793D01*
X124494040Y-71902015D01*
X124436786Y-71915150D01*
X124377996Y-71924233D01*
X124353942Y-71926928D01*
X124353942Y-71665490D01*
X124415362Y-71653223D01*
X124474324Y-71637525D01*
X124530828Y-71618396D01*
X124561158Y-71606286D01*
X124615581Y-71581170D01*
X124670700Y-71551324D01*
X124726514Y-71516749D01*
X124757822Y-71495497D01*
X124964745Y-71495497D01*
X124964745Y-72696000D01*
X124613621Y-72696000D01*
G37*
D10*
G36*
X126699152Y-49663576D02*
G01*
X126798929Y-49676816D01*
X126894515Y-49698884D01*
X127000737Y-49735786D01*
X127101256Y-49784703D01*
X127194060Y-49844556D01*
X127277141Y-49914694D01*
X127350498Y-49995116D01*
X127414131Y-50085824D01*
X127446127Y-50142274D01*
X127487463Y-50231484D01*
X127520247Y-50325090D01*
X127544478Y-50423093D01*
X127560157Y-50525491D01*
X127567284Y-50632287D01*
X127567759Y-50668862D01*
X127563260Y-50777689D01*
X127549762Y-50882155D01*
X127527265Y-50982258D01*
X127495769Y-51077999D01*
X127455274Y-51169379D01*
X127439776Y-51198869D01*
X127388376Y-51282772D01*
X127319337Y-51371413D01*
X127240527Y-51450096D01*
X127151947Y-51518821D01*
X127082693Y-51561814D01*
X126994823Y-51605806D01*
X126903037Y-51640697D01*
X126807336Y-51666485D01*
X126707719Y-51683172D01*
X126604187Y-51690757D01*
X126568806Y-51691263D01*
X126466510Y-51686866D01*
X126367718Y-51673677D01*
X126272429Y-51651695D01*
X126165686Y-51614937D01*
X126063712Y-51566210D01*
X125969151Y-51506448D01*
X125884220Y-51437008D01*
X125808920Y-51357891D01*
X125743250Y-51269096D01*
X125710048Y-51214012D01*
X125660941Y-51111807D01*
X125623896Y-51003946D01*
X125601742Y-50906991D01*
X125588450Y-50805880D01*
X125584019Y-50700614D01*
X125584932Y-50678143D01*
X126214654Y-50678143D01*
X126219352Y-50778859D01*
X126236228Y-50881540D01*
X126269883Y-50981218D01*
X126312840Y-51055743D01*
X126381123Y-51127098D01*
X126472212Y-51175064D01*
X126569547Y-51190921D01*
X126580041Y-51191053D01*
X126677861Y-51175910D01*
X126765177Y-51130481D01*
X126838450Y-51056353D01*
X126887337Y-50970054D01*
X126893161Y-50956092D01*
X126922574Y-50856918D01*
X126936416Y-50752779D01*
X126938590Y-50686448D01*
X126934125Y-50584333D01*
X126918089Y-50479767D01*
X126886108Y-50377602D01*
X126845289Y-50300544D01*
X126780250Y-50226097D01*
X126693169Y-50176053D01*
X126589811Y-50159371D01*
X126486618Y-50172633D01*
X126390738Y-50217855D01*
X126319602Y-50286816D01*
X126313328Y-50295170D01*
X126261293Y-50390711D01*
X126230939Y-50495460D01*
X126217063Y-50603492D01*
X126214654Y-50678143D01*
X125584932Y-50678143D01*
X125588501Y-50590252D01*
X125601948Y-50484115D01*
X125624359Y-50382203D01*
X125655735Y-50284515D01*
X125696075Y-50191052D01*
X125711514Y-50160837D01*
X125763114Y-50074724D01*
X125821927Y-49996271D01*
X125899658Y-49914422D01*
X125987207Y-49842999D01*
X126070062Y-49790076D01*
X126158923Y-49745586D01*
X126252214Y-49710300D01*
X126349936Y-49684220D01*
X126452089Y-49667344D01*
X126558672Y-49659673D01*
X126595184Y-49659162D01*
X126699152Y-49663576D01*
G37*
G36*
X129552477Y-50758743D02*
G01*
X129549096Y-50873270D01*
X129538952Y-50980180D01*
X129522046Y-51079472D01*
X129491403Y-51192876D01*
X129450194Y-51294377D01*
X129398419Y-51383977D01*
X129336078Y-51461674D01*
X129262740Y-51527815D01*
X129177978Y-51582746D01*
X129081791Y-51626467D01*
X128974178Y-51658977D01*
X128855141Y-51680276D01*
X128751685Y-51689245D01*
X128669295Y-51691263D01*
X128567316Y-51687675D01*
X128448751Y-51673102D01*
X128340084Y-51647318D01*
X128241316Y-51610324D01*
X128152446Y-51562119D01*
X128073475Y-51502704D01*
X128030844Y-51461674D01*
X127968221Y-51384239D01*
X127916212Y-51295427D01*
X127874817Y-51195237D01*
X127844036Y-51083670D01*
X127827054Y-50986225D01*
X127816864Y-50881498D01*
X127813468Y-50769490D01*
X127813468Y-49690425D01*
X128409420Y-49690425D01*
X128409420Y-50795868D01*
X128415023Y-50895839D01*
X128437088Y-50999239D01*
X128480251Y-51088471D01*
X128553915Y-51158596D01*
X128650954Y-51189450D01*
X128682972Y-51191053D01*
X128780763Y-51175171D01*
X128867353Y-51117376D01*
X128885694Y-51094822D01*
X128930605Y-51001080D01*
X128950724Y-50898084D01*
X128955059Y-50809546D01*
X128955059Y-49690425D01*
X129552477Y-49690425D01*
X129552477Y-50758743D01*
G37*
G36*
X130902651Y-50159371D02*
G01*
X130902651Y-51660000D01*
X130306210Y-51660000D01*
X130306210Y-50159371D01*
X129755198Y-50159371D01*
X129755198Y-49690425D01*
X131460502Y-49690425D01*
X131460502Y-50159371D01*
X130902651Y-50159371D01*
G37*
D12*
%TO.C,G\u002A\u002A\u002A*%
G36*
X125053465Y-68563657D02*
G01*
X125091862Y-68565331D01*
X125121182Y-68569497D01*
X125147416Y-68577206D01*
X125176553Y-68589507D01*
X125193209Y-68597294D01*
X125267097Y-68637365D01*
X125326511Y-68682217D01*
X125378030Y-68737139D01*
X125395652Y-68760043D01*
X125445010Y-68843810D01*
X125476016Y-68933767D01*
X125489196Y-69027046D01*
X125485077Y-69120782D01*
X125464182Y-69212106D01*
X125427039Y-69298152D01*
X125374171Y-69376053D01*
X125306106Y-69442942D01*
X125265094Y-69472285D01*
X125190094Y-69509868D01*
X125105413Y-69535237D01*
X125016947Y-69547599D01*
X124930591Y-69546163D01*
X124852242Y-69530137D01*
X124847168Y-69528434D01*
X124752089Y-69485076D01*
X124670092Y-69425885D01*
X124602562Y-69352284D01*
X124550887Y-69265699D01*
X124524455Y-69196705D01*
X124509573Y-69121528D01*
X124506207Y-69037833D01*
X124514057Y-68954178D01*
X124532822Y-68879119D01*
X124535868Y-68870903D01*
X124578694Y-68787815D01*
X124638449Y-68712204D01*
X124711317Y-68647891D01*
X124793487Y-68598695D01*
X124818447Y-68587828D01*
X124849966Y-68576668D01*
X124881384Y-68569460D01*
X124918709Y-68565396D01*
X124967954Y-68563668D01*
X125000000Y-68563425D01*
X125053465Y-68563657D01*
G37*
G36*
X125140357Y-67800029D02*
G01*
X125286513Y-67827352D01*
X125429435Y-67872609D01*
X125567439Y-67935863D01*
X125698845Y-68017177D01*
X125821971Y-68116614D01*
X125859300Y-68152225D01*
X125965592Y-68271873D01*
X126054000Y-68400857D01*
X126124499Y-68537456D01*
X126177067Y-68679949D01*
X126211681Y-68826613D01*
X126228320Y-68975728D01*
X126226959Y-69125573D01*
X126207576Y-69274427D01*
X126170149Y-69420568D01*
X126114654Y-69562274D01*
X126041069Y-69697826D01*
X125949371Y-69825500D01*
X125882439Y-69900962D01*
X125807363Y-69974876D01*
X125735650Y-70035379D01*
X125660467Y-70087482D01*
X125574981Y-70136195D01*
X125531800Y-70158114D01*
X125439568Y-70200757D01*
X125355811Y-70232494D01*
X125274269Y-70254815D01*
X125188680Y-70269208D01*
X125092785Y-70277164D01*
X125021062Y-70279605D01*
X124961260Y-70280490D01*
X124907696Y-70280710D01*
X124864422Y-70280292D01*
X124835489Y-70279265D01*
X124826244Y-70278272D01*
X124804221Y-70273620D01*
X124770563Y-70266885D01*
X124747264Y-70262357D01*
X124603346Y-70224356D01*
X124462719Y-70166973D01*
X124328383Y-70091875D01*
X124203335Y-70000730D01*
X124094222Y-69899064D01*
X123992172Y-69776980D01*
X123908074Y-69645601D01*
X123841969Y-69506705D01*
X123793897Y-69362069D01*
X123763897Y-69213472D01*
X123752010Y-69062690D01*
X123752645Y-69047368D01*
X123911989Y-69047368D01*
X123912801Y-69115020D01*
X123915037Y-69167691D01*
X123919339Y-69211437D01*
X123926349Y-69252314D01*
X123936710Y-69296380D01*
X123939589Y-69307429D01*
X123988414Y-69452719D01*
X124055305Y-69588053D01*
X124139461Y-69712064D01*
X124240082Y-69823385D01*
X124243151Y-69826328D01*
X124351631Y-69918897D01*
X124465549Y-69993572D01*
X124588536Y-70052275D01*
X124724220Y-70096930D01*
X124779958Y-70110636D01*
X124833532Y-70118701D01*
X124902034Y-70123070D01*
X124979689Y-70123926D01*
X125060723Y-70121450D01*
X125139363Y-70115823D01*
X125209835Y-70107228D01*
X125266365Y-70095845D01*
X125268533Y-70095258D01*
X125409852Y-70045766D01*
X125541670Y-69977512D01*
X125664128Y-69890417D01*
X125729384Y-69832704D01*
X125833404Y-69720394D01*
X125918614Y-69599168D01*
X125985853Y-69467693D01*
X126024566Y-69362908D01*
X126058213Y-69221940D01*
X126072212Y-69077118D01*
X126066955Y-68931069D01*
X126042833Y-68786420D01*
X126000236Y-68645798D01*
X125939558Y-68511829D01*
X125884108Y-68419801D01*
X125842894Y-68365545D01*
X125789600Y-68305393D01*
X125729800Y-68244917D01*
X125669069Y-68189692D01*
X125612982Y-68145289D01*
X125601540Y-68137338D01*
X125470026Y-68060991D01*
X125332634Y-68004281D01*
X125191068Y-67967205D01*
X125047031Y-67949758D01*
X124902228Y-67951936D01*
X124758361Y-67973736D01*
X124617135Y-68015153D01*
X124480254Y-68076183D01*
X124373425Y-68140202D01*
X124314887Y-68185272D01*
X124251456Y-68243536D01*
X124188196Y-68309636D01*
X124130168Y-68378214D01*
X124082437Y-68443912D01*
X124074149Y-68456917D01*
X124009276Y-68574939D01*
X123961933Y-68692870D01*
X123930881Y-68815213D01*
X123914885Y-68946471D01*
X123911989Y-69047368D01*
X123752645Y-69047368D01*
X123758276Y-68911503D01*
X123782734Y-68761687D01*
X123825424Y-68615022D01*
X123886388Y-68473283D01*
X123965663Y-68338251D01*
X124056461Y-68219548D01*
X124167952Y-68105657D01*
X124289663Y-68009197D01*
X124419912Y-67930233D01*
X124557016Y-67868826D01*
X124699295Y-67825039D01*
X124845065Y-67798935D01*
X124992647Y-67790578D01*
X125140357Y-67800029D01*
G37*
G36*
X125159788Y-67007236D02*
G01*
X125201600Y-67011002D01*
X125399388Y-67041300D01*
X125591196Y-67091108D01*
X125775790Y-67159436D01*
X125951936Y-67245294D01*
X126118398Y-67347694D01*
X126273942Y-67465644D01*
X126417334Y-67598157D01*
X126547338Y-67744243D01*
X126662720Y-67902911D01*
X126762245Y-68073174D01*
X126844678Y-68254041D01*
X126882355Y-68357894D01*
X126937940Y-68558349D01*
X126972906Y-68760441D01*
X126987326Y-68962991D01*
X126981278Y-69164817D01*
X126954835Y-69364741D01*
X126908073Y-69561580D01*
X126841066Y-69754156D01*
X126785656Y-69878619D01*
X126688648Y-70055053D01*
X126575856Y-70218697D01*
X126448589Y-70368832D01*
X126308156Y-70504741D01*
X126155866Y-70625706D01*
X125993028Y-70731011D01*
X125820951Y-70819938D01*
X125640944Y-70891769D01*
X125454316Y-70945787D01*
X125262376Y-70981275D01*
X125066433Y-70997515D01*
X124867796Y-70993789D01*
X124768325Y-70984270D01*
X124570176Y-70949766D01*
X124378270Y-70895707D01*
X124193874Y-70822994D01*
X124018251Y-70732526D01*
X123852668Y-70625204D01*
X123698389Y-70501930D01*
X123556679Y-70363602D01*
X123428804Y-70211123D01*
X123316028Y-70045393D01*
X123230364Y-69889473D01*
X123149306Y-69701544D01*
X123088209Y-69508372D01*
X123047073Y-69311429D01*
X123025899Y-69112189D01*
X123025288Y-69011552D01*
X123194667Y-69011552D01*
X123198029Y-69129253D01*
X123207023Y-69239288D01*
X123218375Y-69317660D01*
X123263290Y-69507969D01*
X123326638Y-69689861D01*
X123407392Y-69862257D01*
X123504526Y-70024077D01*
X123617012Y-70174242D01*
X123743823Y-70311673D01*
X123883932Y-70435291D01*
X124036311Y-70544017D01*
X124199934Y-70636771D01*
X124373774Y-70712474D01*
X124556803Y-70770048D01*
X124613665Y-70783693D01*
X124772972Y-70812918D01*
X124924776Y-70827153D01*
X125075888Y-70826852D01*
X125164030Y-70820379D01*
X125357947Y-70791314D01*
X125544727Y-70743089D01*
X125723247Y-70676594D01*
X125892385Y-70592717D01*
X126051017Y-70492349D01*
X126198022Y-70376378D01*
X126332276Y-70245692D01*
X126452658Y-70101182D01*
X126558044Y-69943735D01*
X126647312Y-69774242D01*
X126719339Y-69593591D01*
X126721608Y-69586855D01*
X126773593Y-69399691D01*
X126805376Y-69211045D01*
X126817438Y-69022342D01*
X126810259Y-68835010D01*
X126784322Y-68650478D01*
X126740107Y-68470171D01*
X126678097Y-68295518D01*
X126598772Y-68127945D01*
X126502613Y-67968880D01*
X126390103Y-67819751D01*
X126261723Y-67681984D01*
X126117953Y-67557008D01*
X126010946Y-67479589D01*
X125844005Y-67380126D01*
X125670233Y-67300056D01*
X125491057Y-67239404D01*
X125307904Y-67198197D01*
X125122202Y-67176462D01*
X124935378Y-67174224D01*
X124748861Y-67191510D01*
X124564078Y-67228346D01*
X124382456Y-67284759D01*
X124205423Y-67360774D01*
X124055056Y-67443603D01*
X123899652Y-67550870D01*
X123756838Y-67674225D01*
X123627627Y-67812173D01*
X123513027Y-67963216D01*
X123414050Y-68125858D01*
X123331707Y-68298603D01*
X123267008Y-68479955D01*
X123220964Y-68668417D01*
X123218375Y-68682339D01*
X123204840Y-68781108D01*
X123196938Y-68893175D01*
X123194667Y-69011552D01*
X123025288Y-69011552D01*
X123024685Y-68912122D01*
X123043433Y-68712702D01*
X123082141Y-68515402D01*
X123140811Y-68321692D01*
X123219442Y-68133047D01*
X123230364Y-68110526D01*
X123328505Y-67934334D01*
X123442363Y-67771047D01*
X123570639Y-67621388D01*
X123712036Y-67486083D01*
X123865256Y-67365855D01*
X124029000Y-67261428D01*
X124201971Y-67173526D01*
X124382870Y-67102874D01*
X124570399Y-67050194D01*
X124763261Y-67016212D01*
X124960156Y-67001651D01*
X125159788Y-67007236D01*
G37*
D13*
%TO.C,S1*%
X114000000Y-53000000D02*
X114000000Y-55000000D01*
X114000000Y-58000000D02*
X114000000Y-60000000D01*
X114000000Y-63000000D02*
X114000000Y-65000000D01*
X114000000Y-65000000D02*
X119100000Y-65000000D01*
X119100000Y-53000000D02*
X114000000Y-53000000D01*
X120900000Y-65000000D02*
X126000000Y-65000000D01*
X126000000Y-53000000D02*
X120900000Y-53000000D01*
X126000000Y-55000000D02*
X126000000Y-53000000D01*
X126000000Y-60000000D02*
X126000000Y-58000000D01*
X126000000Y-65000000D02*
X126000000Y-63000000D01*
D10*
X127800000Y-61500000D02*
G75*
G02*
X127600000Y-61500000I-100000J0D01*
G01*
X127600000Y-61500000D02*
G75*
G02*
X127800000Y-61500000I100000J0D01*
G01*
%TD*%
M02*
