%TF.GenerationSoftware,KiCad,Pcbnew,8.0.5*%
%TF.CreationDate,2024-09-12T13:34:15+03:00*%
%TF.ProjectId,Tactile Power Switch,54616374-696c-4652-9050-6f7765722053,rev?*%
%TF.SameCoordinates,Original*%
%TF.FileFunction,Legend,Top*%
%TF.FilePolarity,Positive*%
%FSLAX46Y46*%
G04 Gerber Fmt 4.6, Leading zero omitted, Abs format (unit mm)*
G04 Created by KiCad (PCBNEW 8.0.5) date 2024-09-12 13:34:15*
%MOMM*%
%LPD*%
G01*
G04 APERTURE LIST*
%ADD10C,0.200000*%
%ADD11C,0.150000*%
%ADD12C,0.120000*%
%ADD13C,0.100000*%
G04 APERTURE END LIST*
D10*
G36*
X124175855Y-47999853D02*
G01*
X124175855Y-48504947D01*
X123834892Y-48504947D01*
X123834892Y-47999853D01*
X123326378Y-47999853D01*
X123326378Y-47660844D01*
X123834892Y-47660844D01*
X123834892Y-47160635D01*
X124175855Y-47160635D01*
X124175855Y-47660844D01*
X124688277Y-47660844D01*
X124688277Y-47999853D01*
X124175855Y-47999853D01*
G37*
G36*
X116893928Y-53960000D02*
G01*
X116893928Y-51990425D01*
X117487438Y-51990425D01*
X117487438Y-53960000D01*
X116893928Y-53960000D01*
G37*
G36*
X119245498Y-53960000D02*
G01*
X118550383Y-53006964D01*
X118492727Y-52925425D01*
X118436226Y-52838110D01*
X118415561Y-52803265D01*
X118410188Y-52803265D01*
X118414916Y-52907893D01*
X118417511Y-53010323D01*
X118418460Y-53108464D01*
X118418492Y-53131039D01*
X118418492Y-53960000D01*
X117868946Y-53960000D01*
X117868946Y-51990425D01*
X118429727Y-51990425D01*
X119096022Y-52896078D01*
X119125819Y-52939064D01*
X119161479Y-52989867D01*
X119195184Y-53040669D01*
X119219609Y-53084633D01*
X119224982Y-53084633D01*
X119218048Y-52981706D01*
X119216678Y-52875561D01*
X119216678Y-51990425D01*
X119766224Y-51990425D01*
X119766224Y-53960000D01*
X119245498Y-53960000D01*
G37*
G36*
X117575855Y-47899853D02*
G01*
X117575855Y-48404947D01*
X117234892Y-48404947D01*
X117234892Y-47899853D01*
X116726378Y-47899853D01*
X116726378Y-47560844D01*
X117234892Y-47560844D01*
X117234892Y-47060635D01*
X117575855Y-47060635D01*
X117575855Y-47560844D01*
X118088277Y-47560844D01*
X118088277Y-47899853D01*
X117575855Y-47899853D01*
G37*
G36*
X126126797Y-47998527D02*
G01*
X126126797Y-47592107D01*
X126878576Y-47592107D01*
X126878576Y-47998527D01*
X126126797Y-47998527D01*
G37*
G36*
X119426797Y-47898527D02*
G01*
X119426797Y-47492107D01*
X120178576Y-47492107D01*
X120178576Y-47898527D01*
X119426797Y-47898527D01*
G37*
G36*
X123599152Y-51963576D02*
G01*
X123698929Y-51976816D01*
X123794515Y-51998884D01*
X123900737Y-52035786D01*
X124001256Y-52084703D01*
X124094060Y-52144556D01*
X124177141Y-52214694D01*
X124250498Y-52295116D01*
X124314131Y-52385824D01*
X124346127Y-52442274D01*
X124387463Y-52531484D01*
X124420247Y-52625090D01*
X124444478Y-52723093D01*
X124460157Y-52825491D01*
X124467284Y-52932287D01*
X124467759Y-52968862D01*
X124463260Y-53077689D01*
X124449762Y-53182155D01*
X124427265Y-53282258D01*
X124395769Y-53377999D01*
X124355274Y-53469379D01*
X124339776Y-53498869D01*
X124288376Y-53582772D01*
X124219337Y-53671413D01*
X124140527Y-53750096D01*
X124051947Y-53818821D01*
X123982693Y-53861814D01*
X123894823Y-53905806D01*
X123803037Y-53940697D01*
X123707336Y-53966485D01*
X123607719Y-53983172D01*
X123504187Y-53990757D01*
X123468806Y-53991263D01*
X123366510Y-53986866D01*
X123267718Y-53973677D01*
X123172429Y-53951695D01*
X123065686Y-53914937D01*
X122963712Y-53866210D01*
X122869151Y-53806448D01*
X122784220Y-53737008D01*
X122708920Y-53657891D01*
X122643250Y-53569096D01*
X122610048Y-53514012D01*
X122560941Y-53411807D01*
X122523896Y-53303946D01*
X122501742Y-53206991D01*
X122488450Y-53105880D01*
X122484019Y-53000614D01*
X122484932Y-52978143D01*
X123114654Y-52978143D01*
X123119352Y-53078859D01*
X123136228Y-53181540D01*
X123169883Y-53281218D01*
X123212840Y-53355743D01*
X123281123Y-53427098D01*
X123372212Y-53475064D01*
X123469547Y-53490921D01*
X123480041Y-53491053D01*
X123577861Y-53475910D01*
X123665177Y-53430481D01*
X123738450Y-53356353D01*
X123787337Y-53270054D01*
X123793161Y-53256092D01*
X123822574Y-53156918D01*
X123836416Y-53052779D01*
X123838590Y-52986448D01*
X123834125Y-52884333D01*
X123818089Y-52779767D01*
X123786108Y-52677602D01*
X123745289Y-52600544D01*
X123680250Y-52526097D01*
X123593169Y-52476053D01*
X123489811Y-52459371D01*
X123386618Y-52472633D01*
X123290738Y-52517855D01*
X123219602Y-52586816D01*
X123213328Y-52595170D01*
X123161293Y-52690711D01*
X123130939Y-52795460D01*
X123117063Y-52903492D01*
X123114654Y-52978143D01*
X122484932Y-52978143D01*
X122488501Y-52890252D01*
X122501948Y-52784115D01*
X122524359Y-52682203D01*
X122555735Y-52584515D01*
X122596075Y-52491052D01*
X122611514Y-52460837D01*
X122663114Y-52374724D01*
X122721927Y-52296271D01*
X122799658Y-52214422D01*
X122887207Y-52142999D01*
X122970062Y-52090076D01*
X123058923Y-52045586D01*
X123152214Y-52010300D01*
X123249936Y-51984220D01*
X123352089Y-51967344D01*
X123458672Y-51959673D01*
X123495184Y-51959162D01*
X123599152Y-51963576D01*
G37*
G36*
X126452477Y-53058743D02*
G01*
X126449096Y-53173270D01*
X126438952Y-53280180D01*
X126422046Y-53379472D01*
X126391403Y-53492876D01*
X126350194Y-53594377D01*
X126298419Y-53683977D01*
X126236078Y-53761674D01*
X126162740Y-53827815D01*
X126077978Y-53882746D01*
X125981791Y-53926467D01*
X125874178Y-53958977D01*
X125755141Y-53980276D01*
X125651685Y-53989245D01*
X125569295Y-53991263D01*
X125467316Y-53987675D01*
X125348751Y-53973102D01*
X125240084Y-53947318D01*
X125141316Y-53910324D01*
X125052446Y-53862119D01*
X124973475Y-53802704D01*
X124930844Y-53761674D01*
X124868221Y-53684239D01*
X124816212Y-53595427D01*
X124774817Y-53495237D01*
X124744036Y-53383670D01*
X124727054Y-53286225D01*
X124716864Y-53181498D01*
X124713468Y-53069490D01*
X124713468Y-51990425D01*
X125309420Y-51990425D01*
X125309420Y-53095868D01*
X125315023Y-53195839D01*
X125337088Y-53299239D01*
X125380251Y-53388471D01*
X125453915Y-53458596D01*
X125550954Y-53489450D01*
X125582972Y-53491053D01*
X125680763Y-53475171D01*
X125767353Y-53417376D01*
X125785694Y-53394822D01*
X125830605Y-53301080D01*
X125850724Y-53198084D01*
X125855059Y-53109546D01*
X125855059Y-51990425D01*
X126452477Y-51990425D01*
X126452477Y-53058743D01*
G37*
G36*
X127802651Y-52459371D02*
G01*
X127802651Y-53960000D01*
X127206210Y-53960000D01*
X127206210Y-52459371D01*
X126655198Y-52459371D01*
X126655198Y-51990425D01*
X128360502Y-51990425D01*
X128360502Y-52459371D01*
X127802651Y-52459371D01*
G37*
D11*
X127024819Y-59738094D02*
X126024819Y-59738094D01*
X126024819Y-59738094D02*
X126024819Y-59499999D01*
X126024819Y-59499999D02*
X126072438Y-59357142D01*
X126072438Y-59357142D02*
X126167676Y-59261904D01*
X126167676Y-59261904D02*
X126262914Y-59214285D01*
X126262914Y-59214285D02*
X126453390Y-59166666D01*
X126453390Y-59166666D02*
X126596247Y-59166666D01*
X126596247Y-59166666D02*
X126786723Y-59214285D01*
X126786723Y-59214285D02*
X126881961Y-59261904D01*
X126881961Y-59261904D02*
X126977200Y-59357142D01*
X126977200Y-59357142D02*
X127024819Y-59499999D01*
X127024819Y-59499999D02*
X127024819Y-59738094D01*
X127024819Y-58214285D02*
X127024819Y-58785713D01*
X127024819Y-58499999D02*
X126024819Y-58499999D01*
X126024819Y-58499999D02*
X126167676Y-58595237D01*
X126167676Y-58595237D02*
X126262914Y-58690475D01*
X126262914Y-58690475D02*
X126310533Y-58785713D01*
D12*
%TO.C,C1*%
X128061253Y-65265000D02*
X127538747Y-65265000D01*
X128061253Y-66735000D02*
X127538747Y-66735000D01*
%TO.C,R3*%
X124337258Y-68377500D02*
X123862742Y-68377500D01*
X124337258Y-69422500D02*
X123862742Y-69422500D01*
%TO.C,C2*%
X124038748Y-66265000D02*
X124561252Y-66265000D01*
X124038748Y-67735000D02*
X124561252Y-67735000D01*
D13*
%TO.C,Q1*%
X121850000Y-63175000D02*
X121850000Y-63650000D01*
X121850000Y-64375000D02*
X121850000Y-64825000D01*
X121850000Y-64825000D02*
X122150000Y-64825000D01*
X122200000Y-63175000D02*
X121850000Y-63175000D01*
X122200000Y-64825000D02*
X122075000Y-64825000D01*
X124825000Y-62400000D02*
X124825000Y-63174999D01*
X124825000Y-63174999D02*
X124875000Y-63175000D01*
X124850000Y-64825000D02*
X125150000Y-64825000D01*
X124875000Y-63175000D02*
X125150000Y-63550000D01*
X125150000Y-63550000D02*
X125150000Y-63825000D01*
X125150000Y-64825000D02*
X125150000Y-64450000D01*
D12*
%TO.C,D1*%
X127265000Y-58200000D02*
X127265000Y-60485000D01*
X127265000Y-60485000D02*
X128735000Y-60485000D01*
X128735000Y-60485000D02*
X128735000Y-58200000D01*
%TO.C,R4*%
X128277501Y-55562742D02*
X128277501Y-56037258D01*
X129322501Y-55562742D02*
X129322501Y-56037258D01*
%TO.C,SW1*%
X117250000Y-58000000D02*
X117250000Y-60000000D01*
X118300000Y-56700000D02*
X118750000Y-56250000D01*
X118300000Y-61300000D02*
X118750000Y-61750000D01*
X118750000Y-56250000D02*
X121250000Y-56250000D01*
X118750000Y-61750000D02*
X121250000Y-61750000D01*
X121700000Y-56700000D02*
X121250000Y-56250000D01*
X121700000Y-61300000D02*
X121250000Y-61750000D01*
X122750000Y-58000000D02*
X122750000Y-60000000D01*
%TO.C,Q4*%
X114250000Y-62489999D02*
X118010000Y-62490000D01*
X114250000Y-69310001D02*
X118010000Y-69310000D01*
X118010000Y-62490000D02*
X118010000Y-63749999D01*
X118010000Y-69310000D02*
X118010000Y-68050001D01*
X112970000Y-62590000D02*
X112730000Y-62260000D01*
X113210000Y-62260000D01*
X112970000Y-62590000D01*
G36*
X112970000Y-62590000D02*
G01*
X112730000Y-62260000D01*
X113210000Y-62260000D01*
X112970000Y-62590000D01*
G37*
%TO.C,R2*%
X125977500Y-55562742D02*
X125977500Y-56037258D01*
X127022500Y-55562742D02*
X127022500Y-56037258D01*
D13*
%TO.C,Q2*%
X126200000Y-61675000D02*
X126974999Y-61675000D01*
X126974999Y-61675000D02*
X126975000Y-61625000D01*
X126975000Y-61625000D02*
X127350000Y-61350000D01*
X126975000Y-64300000D02*
X126975000Y-64650000D01*
X126975000Y-64650000D02*
X127450000Y-64650000D01*
X127350000Y-61350000D02*
X127625000Y-61350000D01*
X128175000Y-64650000D02*
X128625000Y-64650000D01*
X128625000Y-61350000D02*
X128250000Y-61350000D01*
X128625000Y-61650000D02*
X128625000Y-61350000D01*
X128625000Y-64300000D02*
X128625000Y-64425000D01*
X128625000Y-64650000D02*
X128625000Y-64350000D01*
D12*
%TO.C,R1*%
X121177500Y-67262742D02*
X121177500Y-67737258D01*
X122222500Y-67262742D02*
X122222500Y-67737258D01*
%TD*%
M02*
